<svg width="149" height="147" fill="none" xmlns="http://www.w3.org/2000/svg"><path d="M8.88082 82.3745c.62769-.0013 1.24578-.1544 1.80158-.4461.5561-.292 1.0334-.7142 1.391-1.2305.3577-.5164.5851-1.1117.6628-1.735.0778-.6233.0035-1.2562-.2163-1.8446-2.82815-7.5429-4.06993-15.5887-3.64729-23.6333.42239-8.0399 2.49799-15.9064 6.09719-23.108.2595-.4561.4242-.9599.4842-1.4813.0605-.5264.0129-1.0595-.1398-1.5669-.1527-.5073-.4074-.9781-.7484-1.3836-.341-.4055-.7611-.7371-1.2347-.9746-.4736-.2375-.9907-.3758-1.5197-.4064-.5289-.0307-1.0585.0469-1.5564.228-.49788.1811-.95358.4619-1.33917.8252-.38209.3601-.68737.7936-.89756 1.2746l.86255 55.4825zm0 0H8.8795l-.00088-.5.00352.5h-.00132zm0 0c-.79048.0053-1.56385-.2301-2.2173-.675-.6538-.4452-1.15652-1.0789-1.44125-1.8168l-.00173-.0045C2.0155 71.3268.610209 62.206 1.09266 53.0865c.48221-9.115 2.83992-18.0324 6.92561-26.1945l.86255 55.4825zM8.01827 26.892c-.00193.0044-.00385.0088-.00577.0133l.45891.1985-.44707-.2239c-.00202.004-.00405.0081-.00607.0121zM140.929 26.874l.033-.0192c-.495-.8625-1.302-1.5027-2.254-1.7894-.952-.2867-1.978-.198-2.867.2477-.889.4458-1.574 1.2149-1.914 2.1496-.34.9346-.309 1.9639.085 2.8768l.006.0127.006.0124c3.603 7.205 5.681 15.0759 6.103 23.1204.423 8.0445-.818 16.0896-3.646 23.6323l4.448-50.2433zm0 0l.047-.0111c4.089 8.1654 6.449 17.0871 6.931 26.2066.483 9.1195-.922 18.2404-4.127 26.7917l-.001.0005c-.18.4792-.453.9183-.803 1.2921-.349.3738-.77.675-1.236.8865-.466.2115-.97.329-1.481.3459-.512.0169-1.022-.0671-1.501-.2473-.479-.1802-.919-.453-1.292-.8029-.374-.3499-.675-.7699-.887-1.2362-.211-.4663-.329-.9697-.346-1.4814-.017-.5117.067-1.0217.247-1.5008l4.449-50.2436zM25.1675 42.1029l.1169-.4861c-.5025-.1209-1.0241-.1405-1.5343-.0577-.5103.0828-.9989.2663-1.4374.54-.4385.2736-.8182.6318-1.1168 1.0537-.2979.4208-.5092.8965-.6217 1.3996-1.6779 7.0137-1.8759 14.3001-.5816 21.3946l.0022.012.0027.0118c.2272.9742.8207 1.8236 1.6573 2.372.8366.5484 1.8522.7538 2.8361.5735.984-.1803 1.8608-.7323 2.4486-1.5417.5879-.8094.8417-1.814.7087-2.8054l-.0016-.0118-.0021-.0117c-1.1012-6.0229-.9359-12.2091.4853-18.1645.1298-.4982.1596-1.0173.0874-1.5271-.0723-.5117-.2459-1.0038-.5104-1.4478-.2646-.4439-.6149-.8308-1.0305-1.1379-.4155-.3072-.8881-.5286-1.3902-.6512l-.1186.4857zM124.469 69.0125l.003.0004c.503.0927 1.021.0852 1.521-.0222.501-.1075.976-.3126 1.397-.6038.421-.2911.781-.6625 1.059-1.0929.277-.4303.467-.911.559-1.4148 1.291-7.0724 1.098-14.3358-.566-21.3299l-.002-.0072c-.251-.992-.883-1.845-1.759-2.3746-.876-.5295-1.925-.693-2.92-.4551-.995.238-1.857.8583-2.398 1.7266-.542.8684-.72 1.9151-.495 2.9136l.001.0065c1.423 5.957 1.588 12.145.487 18.1696l-.001.0063c-.171 1.0055.059 2.038.642 2.8753.582.8373 1.47 1.4126 2.472 1.6022zM111.709 56.5422c-.014-6.6939-1.85-13.2588-5.31-18.9888-3.408-5.6439-8.2666-10.2692-14.0668-13.3964v-5.3333c0-4.7271-1.8779-9.26066-5.2204-12.60326C83.7692 2.87785 79.2356 1 74.5085 1c-4.7271 0-9.2607 1.87785-12.6033 5.22044-3.3426 3.3426-5.2204 7.87616-5.2204 12.60326v5.564c-5.8217 3.3659-10.6701 8.1883-14.0675 13.9954-3.4465 5.8911-5.2779 12.5872-5.3093 19.4124v9.8434c0 10.1292-3.562 18.6872-11.2238 26.8223-3.6184.1089-7.059 1.6084-9.6031 4.1913-2.5939 2.6335-4.0477 6.1815-4.0473 9.8775v3.92c0 3.732 1.4828 7.312 4.1222 9.952 2.6394 2.639 6.2191 4.122 9.9517 4.122H53.826c.3317 5.167 2.587 10.03 6.3308 13.623 3.8595 3.705 9.002 5.774 14.3517 5.774 5.3497 0 10.4922-2.069 14.3517-5.774 3.7438-3.593 5.9991-8.456 6.3308-13.623h27.318c3.733 0 7.313-1.483 9.952-4.122 2.639-2.64 4.122-6.22 4.122-9.952v-3.92c.001-3.696-1.453-7.244-4.047-9.8775-2.544-2.5829-5.985-4.0824-9.603-4.1913-7.662-8.135-11.224-16.6764-11.224-26.8223V56.5422zM65.1748 20.888c-.228.0616-.4613.1335-.69.206l-.0131-2.2703v-.0015c.0005-2.6614 1.0578-5.2137 2.9397-7.0955 1.8823-1.8823 4.4352-2.93974 7.0971-2.93974s5.2148 1.05744 7.097 2.93974c1.8823 1.8822 2.9397 4.4351 2.9397 7.097v2.1843c-.2299-.073-.4643-.1452-.6934-.2068l-.0027-.0007c-3.0485-.8028-6.1869-1.2132-9.3393-1.2212h-.0218c-1.151 0-2.3829 0-3.5547.1903-1.9523.1772-3.8817.5519-5.7585 1.1184zM45.095 57.7978c-.0119-6.6414 2.1432-13.1064 6.1381-18.412 3.9811-5.287 9.5725-9.1359 15.9309-10.9676h.1735l.0709-.0215c1.3934-.4221 2.8266-.6999 4.2769-.8288l.0081-.0008c.9501-.1 1.8998-.1499 2.8151-.1499h.0012c2.4767-.0061 4.9432.319 7.3337.9667l.009.0023c6.2825 1.5777 11.8614 5.2012 15.8573 10.2995 3.9953 5.0979 6.1813 11.3803 6.2123 17.8573v11.0929c-.118 9.682 2.994 19.117 8.828 26.8205H36.2668c5.8341-7.7035 8.9462-17.1385 8.8282-26.8205v-9.8381zm20.5139 76.8802c-2.2753-2.157-3.6866-5.062-3.9829-8.171h25.765c-.2963 3.109-1.7076 6.014-3.9829 8.171-2.4032 2.279-5.5878 3.551-8.8996 3.554-3.3118-.003-6.4964-1.275-8.8996-3.554zm63.1871-22.245c0 1.667-.662 3.266-1.841 4.445-1.179 1.179-2.778 1.842-4.446 1.842H26.5077c-1.6674 0-3.2665-.663-4.4455-1.842-1.179-1.179-1.8414-2.778-1.8414-4.445v-3.903c0-1.667.6624-3.266 1.8414-4.445 1.179-1.179 2.7781-1.842 4.4455-1.842h96.0013c1.668 0 3.267.663 4.446 1.842 1.179 1.179 1.841 2.778 1.841 4.445v3.903z" fill="#000000"/><path d="M10.6824 81.9284l.2324.4427-.2324-.4427zm1.391-1.2305l-.411-.2847.411.2847zm.6628-1.735l-.4961-.0619H12.24l.4962.0619zm-.2163-1.8446l.4684-.175-.0002-.0005-.4682.1755zM8.87261 53.485l.49931.0262-.49931-.0262zm6.09719-23.108l-.4346-.2473-.0066.0117-.0061.0121.4473.2235zm.4842-1.4813l.4967.0572v-.0001l-.4967-.0571zm-.1398-1.5669l.4788-.1441-.4788.1441zm-3.5028-2.7646l-.029.4992h.0001l.0289-.4992zm-2.89557 1.0532l-.34288-.3639H8.5729l.34293.3639zM8.8795 82.3745l-.5.0009.00088.4991h.49912v-.5zm-.00088-.5l.49999-.0035-.99999.0044.5-.0009zm.00352.5v.5h.50353l-.00354-.5035-.49999.0035zm-2.21862-.675l-.28142.4133h.00003l.28139-.4133zm-1.44125-1.8168l-.46672.1794.00024.0006.46648-.18zm-.00173-.0045l-.46821.1755.00149.0039.46672-.1794zM1.09266 53.0865l.4993.0264-.4993-.0264zM8.0125 26.9053l-.45989-.1962-.19525.4576.45664.1975.1985-.4589zm.45891.1985l-.1985.4589.4224-.906-.2239.4471zm-.44707-.2239l.2239-.4471-.44558-.2231-.22464.4448.44632.2254zM140.929 26.874l-.251-.4322-.224.1302-.023.2579.498.0441zm.033-.0192l.251.4322.43-.25-.247-.4311-.434.2489zm-5.121-1.5417l-.224-.447.224.447zm-1.914 2.1496l.47.1709-.47-.1709zm.085 2.8768l-.459.1981.003.008.004.0078.452-.2139zm.006.0127l-.452.214.002.0037.45-.2177zm.006.0124l-.45.2177.003.0059.447-.2236zm6.103 23.1204l-.499.0262v.0001l.499-.0263zm-3.646 23.6323l-.498-.0441.966.2196-.468-.1755zm4.495-50.2544l.447-.2239-.177-.3536-.385.0909.115.4866zm6.931 26.2066l-.499.0264.499-.0264zm-4.127 26.7917l.226.4458.174-.0881.068-.1822-.468-.1755zm-.001.0005l-.226-.4458-.174.088-.068.182.468.1758zm-.803 1.2921l-.365-.3417v.0005l.365.3412zm-2.717 1.2324l.016.4997h.001l-.017-.4997zm-2.793-1.0502l.342-.3647v-.0004l-.342.3651zm-.887-1.2362l-.456.2061.001.0008.455-.2069zm-.099-2.9822l.468.1758.024-.0638.006-.0679-.498-.0441zM25.1675 42.1029l-.4861-.1169.9718.2355-.4857-.1186zm.1169-.4861l.4861.1169.1169-.4861-.486-.1169-.117.4861zm-1.5343-.0577l.0801.4935-.0801-.4935zm-1.4374.54l.2647.4242-.2647-.4242zm-1.1168 1.0537l.4081.2889-.4081-.2889zm-.6217 1.3996l.4863.1163.0016-.0072-.4879-.1091zm-.5816 21.3946l-.4919.0897.0001.0005.4918-.0902zm.0022.012l-.4918.0902.002.0107.0024.0106.4874-.1115zm.0027.0118l-.4874.1115.0005.0021.4869-.1136zm4.4934 2.9455l-.0901-.4918.0901.4918zm2.4486-1.5417l-.4045-.2938h-.0001l.4046.2938zm.7087-2.8054l.4956-.0665-.0001-.0006-.4955.0671zm-.0016-.0118l.4955-.0671-.0015-.0107-.0019-.0105-.4921.0883zm-.0021-.0117l.4921-.0883-.0003-.0016-.4918.0899zm.4853-18.1645l-.4839-.1261-.0024.01.4863.1161zm.0874-1.5271l-.4951.07v.0001l.4951-.0701zm-.5104-1.4478l.4296-.2559-.0001-.0001-.4295.256zm-1.0305-1.1379l-.2973.402.0002.0001.2971-.4021zm-1.3902-.6512l.1186-.4857-.4857-.1186-.1186.4857.4857.1186zm99.1829 27.3953l-.093.4913.013.0024.013.0018.067-.4955zm.003.0004l.091-.4917-.012-.0022-.012-.0016-.067.4955zm1.521-.0222l-.105-.4889v.0001l.105.4888zm1.397-.6038l-.284-.4113v.0001l.284.4112zm1.059-1.0929l.42.2713v-.0007l-.42-.2706zm.559-1.4148l.492.0898-.492-.0898zm-.566-21.3299l.486-.1157-.002-.0091-.002-.0089-.482.1337zm-.002-.0072l-.485.1227.003.011.482-.1337zm-1.759-2.3746l.259-.4279-.259.4279zm-2.92-.4551l-.116-.4863.116.4863zm-2.398 1.7266l.424.2647v-.0003l-.424-.2644zm-.495 2.9136l.494-.0766-.003-.0167-.003-.0166-.488.1099zm.001.0065l-.494.0766.003.0199.005.0197.486-.1162zm.487 18.1696l-.492-.0899-.002.0116.494.0783zm-.001.0063l.493.0838.001-.0055-.494-.0783zm.642 2.8753l.411-.2854-.001-.0003-.41.2857zm-10.288-10.8681h.5v-.001l-.5.001zm-5.31-18.9888l-.428.2585.428-.2585zM92.3322 24.157h-.5v.2985l.2627.1416.2373-.4401zM87.1118 6.22044l.3536-.35355-.3536.35355zm-25.2066 0l-.3536-.35355.3536.35355zM56.6848 24.3877l.2503.4329.2497-.1444v-.2885h-.5zM42.6173 38.3831l-.4316-.2525.4316.2525zM37.308 57.7955l-.5-.0023v.0023h.5zM26.0842 94.4612l.015.4998.207-.0063.142-.1507-.364-.3428zm-9.6031 4.1913l-.3562-.3509.3562.3509zm-4.0473 9.8775h.5-.5zm4.1222 13.872l-.3536.354h.0001l.3535-.354zm37.27 4.122l.499-.032-.0301-.468h-.4689v.5zm6.3308 13.623l.3463-.361h-.0001l-.3462.361zm28.7034 0l-.3462-.361h-.0001l.3463.361zm6.3308-13.623v-.5h-.4689l-.0301.468.499.032zm37.27-4.122l.354.354v-.001l-.354-.353zm4.122-13.872h-.5.5zm-4.047-9.8775l-.356.3509.356-.3509zm-9.603-4.1913l-.364.3428.142.1507.207.0063.015-.4998zM65.1748 20.888l.1304.4827.0071-.0019.007-.0021-.1445-.4787zm-.69.206l-.5.0029.0039.6789.6472-.2052-.1511-.4766zm-.0131-2.2703h-.5v.0029l.5-.0029zm0-.0015l-.5-.0001v.0001h.5zm2.9397-7.0955l.3535.3536h.0001l-.3536-.3536zm14.1941 0l-.3536.3535.0001.0001.3535-.3536zm2.9397 9.2813l-.1513.4766.6513.2068v-.6834h-.5zm-.6934-.2068l.1298-.4829-.0044-.0011-.1254.484zm-.0027-.0007l-.1273.4835.0019.0005.1254-.484zm-9.3393-1.2212l.0013-.5h-.0013v.5zm-3.5765.1903l.0452.498.0175-.0016.0174-.0029-.0801-.4935zM45.095 57.7978h.5v-.0009l-.5.0009zm6.1381-18.412l-.3994-.3008.3994.3008zM67.164 28.4182v-.5h-.0706l-.0678.0195.1384.4805zm.1735 0v.5h.0741l.071-.0215-.1451-.4785zm.0709-.0215l-.145-.4785h-.0001l.1451.4785zm4.2769-.8288l.0443.4981.0048-.0005-.0491-.4976zm.0081-.0008l.0491.4976.0032-.0003-.0523-.4973zm2.8163-.1499v.5h.0012l-.0012-.5zm7.3337.9667l-.1308.4826.007.0018.1238-.4844zm.009.0023l-.1238.4844.002.0005.1218-.4849zm15.8573 10.2995l.3935-.3084-.3935.3084zm6.2123 17.8573h.5v-.0024l-.5.0024zm0 11.0929l.5.0061v-.0061h-.5zm8.828 26.8205v.5h1.006l-.607-.8019-.399.3019zm-76.4832 0l-.3986-.3019-.6073.8019h1.0059v-.5zm8.8282-26.8205h-.5v.0061l.5-.0061zm20.5139 67.0421l.3441-.363h-.0001l-.344.363zm-3.9829-8.171v-.5h-.5499l.0522.547.4977-.047zm25.765 0l.4977.047.0522-.547h-.5499v.5zm-3.9829 8.171l-.344-.363h-.0001l.3441.363zm-8.8996 3.554l-.0005.5h.0009l-.0004-.5zM8.88186 82.8745c.70833-.0015 1.40574-.1742 2.03294-.5034l-.4648-.8854c-.48445.2542-1.02317.3877-1.57021.3888l.00207 1zm2.03294-.5034c.6275-.3295 1.1661-.8059 1.5696-1.3885l-.822-.5694c-.3117.45-.7277.818-1.2124 1.0725l.4648.8854zm1.5696-1.3885c.4037-.5827.6603-1.2545.748-1.9579l-.9924-.1237c-.0677.5433-.2659 1.0621-.5776 1.5122l.822.5694zm.748-1.9578c.0878-.7034.0039-1.4176-.2441-2.0815l-.9368.35c.1916.5129.2563 1.0645.1886 1.6077l.9923.1238zm-.2443-2.082c-2.804-7.4785-4.03521-15.4557-3.61618-23.4316l-.99862-.0524c-.42625 8.1133.82613 16.2277 3.6784 23.835l.9364-.351zM9.37192 53.5112c.41879-7.9712 2.47668-15.7706 6.04518-22.9107l-.8946-.447c-3.6299 7.2631-5.7232 15.1967-6.1492 23.3053l.99862.0524zm6.03248-22.8869c.2928-.5147.4786-1.0831.5463-1.6714l-.9934-.1144c-.0523.4545-.1959.8937-.4221 1.2912l.8692.4946zm.5463-1.6715c.0683-.594.0146-1.1956-.1577-1.7681l-.9576.2882c.1331.4423.1746.9069.1219 1.3657l.9934.1142zm-.1577-1.7681c-.1723-.5725-.4598-1.1038-.8445-1.5613l-.7654.6436c.2973.3535.5192.7638.6523 1.2059l.9576-.2882zm-.8445-1.5613c-.3848-.4576-.8589-.8318-1.3933-1.0997l-.4482.8938c.4128.2071.7789.4961 1.0761.8495l.7654-.6436zm-1.3933-1.0997c-.5344-.2681-1.118-.4241-1.7149-.4587l-.0578.9984c.4611.0266.9117.1472 1.3245.3541l.4482-.8938zm-1.7148-.4587c-.5969-.0346-1.1945.053-1.7563.2573l.3418.9398c.434-.1579.8956-.2255 1.3565-.1987l.058-.9984zm-1.7563.2573c-.56182.2044-1.07604.5212-1.51115.9312l.68576.7278c.33607-.3166.73325-.5614 1.16719-.7192l-.3418-.9398zm-1.5112.9312c-.43112.4063-.7756.8955-1.01279 1.4383l.91633.4004c.18319-.4192.44926-.797.78232-1.1109l-.68586-.7278zm-1.05457 1.6463l.86255 55.4825.99988-.0156-.86255-55.4825-.99988.0156zm1.36249 54.9747H8.88079h-.00001-.00001-.00001-.00004-.00001-.00001-.00001-.00001-.00001-.00004-.00001-.00001-.00001-.00001-.00001-.00004-.00001-.00001-.00001-.00001-.00004-.00001-.00001-.00001-.00004-.00001-.00001-.00001-.00001-.00001-.00004-.00001-.00001-.00001-.00001-.00001-.00004-.00001-.00001-.00001-.00001-.00004-.00001-.00001-.00001-.00004-.00001-.00001-.00001-.00001-.00001-.00004-.00001-.00001-.00001-.00001-.00001-.00004-.00001-.00001-.00001-.00001-.00004-.00001-.00001-.00001-.00001-.00001-.00002-.00001-.00001-.00001-.00001-.00001-.00004-.00001-.00001-.00001-.00001-.00001-.00004-.00001-.00001-.00001-.00001-.00001v1H8.88082v-1zm.49868.4991l-.00088-.5-1 .0018.00088.5 1-.0018zm-1.00087-.4956l.00352.5.99998-.007-.00352-.5-.99998.007zm.50351-.0035h-.00002-.00001-.00001-.00001-.00001-.00004-.00001-.00001-.00001H8.882h-.00001-.00004-.00001-.00001-.00001-.00001-.00001-.00004-.00001-.00001-.00001-.00004-.00001-.00001-.00001-.00001-.00004-.00001-.00001-.00001-.00001-.00001-.00004-.00001-.00001-.00001-.00001-.00001-.00004-.00001-.00001-.00001-.00004-.00001-.00001-.00001-.00001-.00004-.00001-.00001-.00001-.00001-.00001-.00004-.00001-.00001-.00001-.00001-.00001-.00004-.00001-.00001-.00001-.00001H8.88113h-.00001-.00001-.00001-.00001-.00004-.00001-.00001-.00001-.00001H8.881h-.00004-.00001-.00001-.00001-.00001-.00001-.00004-.00001-.00001-.00001-.00001-.00001v1H8.88214v-1zm-.00467 0c-.68899.0046-1.36304-.2005-1.93256-.5883l-.56278.8266c.73738.502 1.61007.7677 2.50204.7617l-.0067-1zm-1.93253-.5883c-.56986-.388-1.00803-.9404-1.25619-1.5835l-.93296.36c.3213.8327.88857 1.5477 1.62631 2.0501l.56284-.8266zm-1.25595-1.5829l-.00173-.0045-.93344.3588.00173.0045.93344-.3588zm-.00025-.0006c-3.18089-8.4869-4.57559-17.539-4.09678-26.5898l-.998603-.0528c-.486085 9.1882.929793 18.3777 4.158983 26.9936l.9364-.351zM1.59196 53.1129c.47858-9.0463 2.81852-17.8965 6.87342-25.9971l-.89422-.4476C3.45468 34.8918 1.0792 43.8764.593357 53.0601l.998603.0528zm5.96842-26.4217c-.00212.0048-.00484.011-.00777.0179l.91978.3924c.00092-.0021.00203-.0047.00377-.0087l-.91578-.4016zm.25362.673l.45891.1985.397-.9178-.45891-.1985-.397.9178zm.88131-.7075l-.44707-.2239-.4478.8942.44707.2239.4478-.8942zm-1.11729-.0022c-.00153.0031-.00299.006-.00393.0078-.00109.0022-.00165.0034-.00214.0043l.89264.4508c.00153-.0031.00299-.006.00393-.0078.00109-.0022.00165-.0034.00214-.0043l-.89264-.4508zm133.60198.6517l.033-.0192-.502-.8644-.033.0192.502.8644zm.216-.7003c-.559-.9734-1.47-1.6958-2.544-2.0193l-.288.9576c.83.2499 1.533.8079 1.964 1.5595l.868-.4978zm-2.544-2.0193c-1.074-.3235-2.232-.2234-3.235.2795l.448.894c.775-.3885 1.669-.4658 2.499-.2159l.288-.9576zm-3.235.2795c-1.003.5031-1.776 1.3709-2.16 2.4257l.94.3418c.296-.8146.893-1.485 1.668-1.8735l-.448-.894zm-2.16 2.4257c-.384 1.0547-.349 2.2161.096 3.2458l.918-.3962c-.343-.7961-.37-1.6933-.074-2.5078l-.94-.3418zm.103 3.2616l.006.0127.904-.4278-.006-.0127-.904.4278zm.008.0165l.006.0124.9-.4354-.006-.0124-.9.4354zm.009.0183c3.572 7.1435 5.632 14.9472 6.051 22.923l.998-.0524c-.425-8.1132-2.521-16.0513-6.155-23.3178l-.894.4472zm6.051 22.9231c.419 7.9758-.811 15.9522-3.615 23.4305l.936.351c2.852-7.6071 4.104-15.7209 3.677-23.8341l-.998.0526zm-2.649 23.6501l4.448-50.2433-.996-.0882-4.448 50.2433.996.0882zm4.065-49.8008l.047-.0111-.23-.9732-.047.0111.23.9732zm-.515-.2738c4.058 8.1039 6.4 16.9583 6.879 26.0091l.998-.0528c-.485-9.1882-2.863-18.1772-6.983-26.4041l-.894.4478zm6.879 26.0091c.479 9.0508-.915 18.103-4.096 26.5898l.936.351c3.229-8.6158 4.645-17.8054 4.158-26.9936l-.998.0528zm-3.854 26.3195l-.001.0005.452.8916.001-.0005-.452-.8916zm-.243.2705c-.157.4175-.395.8003-.7 1.1262l.73.6834c.395-.4217.703-.9171.906-1.458l-.936-.3516zm-.7 1.1267c-.304.3252-.671.5878-1.078.7724l.414.9106c.525-.2384 1-.5782 1.394-1.0006l-.73-.6824zm-1.078.7724c-.406.1843-.845.2867-1.291.3015l.034.9994c.576-.019 1.145-.1516 1.671-.3903l-.414-.9106zm-1.29.3015c-.447.0147-.892-.0585-1.309-.2156l-.352.936c.54.2033 1.116.2981 1.693.279l-.032-.9994zm-1.309-.2156c-.418-.1572-.801-.3951-1.126-.6996l-.684.7294c.421.3953.918.703 1.458.9062l.352-.936zm-1.126-.7c-.326-.3049-.589-.6711-.774-1.078l-.91.4138c.239.5257.578.9995 1 1.3944l.684-.7302zm-.773-1.0772c-.185-.407-.287-.8461-.302-1.2919l-1 .0332c.019.5776.153 1.1453.39 1.6709l.912-.4122zm-.302-1.2919c-.015-.4461.058-.8907.215-1.3084l-.936-.3517c-.203.5406-.298 1.116-.279 1.6933l1-.0332zm.245-1.4401l4.449-50.2436-.996-.0882-4.449 50.2436.996.0882zM25.6536 42.2198l.1169-.4861-.9722-.2338-.1169.4861.9722.2338zm-.2522-1.0891c-.5671-.1365-1.1557-.1586-1.7314-.0651l.1602.987c.4447-.0721.8993-.055 1.3372.0503l.234-.9722zm-1.7314-.0651c-.5758.0934-1.1272.3004-1.622.6093l.5294.8484c.3822-.2385.808-.3985 1.2528-.4707l-.1602-.987zm-1.622.6093c-.4948.3087-.9233.7129-1.2602 1.1891l.8162.5777c.2603-.3677.5912-.6799.9734-.9184l-.5294-.8484zm-1.2602 1.189c-.3362.4748-.5746 1.0117-.7015 1.5794l.9758.2182c.0981-.4385.2823-.853.5419-1.2198l-.8162-.5778zm-.6999 1.5722c-1.694 7.0812-1.8939 14.4378-.5872 21.6006l.9838-.1794c-1.2819-7.0262-1.0858-14.2424.576-21.1886l-.9726-.2326zm-.5871 21.6011l.0022.012.9836-.1804-.0022-.012-.9836.1804zm.0066.0333l.0027.0118.9748-.223-.0027-.0118-.9748.223zm.0032.0139c.2563 1.0993.9261 2.0577 1.8701 2.6766l.5482-.8364c-.7292-.478-1.2464-1.2183-1.4445-2.0674l-.9738.2272zm1.8701 2.6766c.944.6188 2.09.8506 3.2003.6471l-.1802-.9836c-.8575.1571-1.7427-.0219-2.4719-.4999l-.5482.8364zm3.2003.6471c1.1103-.2034 2.0998-.8263 2.7631-1.7397l-.8092-.5876c-.5123.7054-1.2764 1.1865-2.1341 1.3437l.1802.9836zm2.763-1.7397c.6634-.9133.9498-2.0469.7998-3.1657l-.9912.133c.116.864-.1052 1.7396-.6176 2.4451l.809.5876zm.7997-3.1663l-.0016-.0118-.991.1342.0016.0118.991-.1342zm-.005-.033l-.0021-.0117-.9842.1766.0021.0117.9842-.1766zm-.0024-.0133c-1.0887-5.9546-.9252-12.0707.4798-17.9585l-.9726-.2322c-1.4374 6.023-1.6045 12.2793-.4908 18.3705l.9836-.1798zm.4774-17.9485c.1464-.5622.18-1.1479.0986-1.7233l-.9902.1402c.063.4442.037.8967-.0761 1.3309l.9677.2522zm.0986-1.7232c-.0816-.5775-.2775-1.1328-.5759-1.6337l-.8592.5118c.2306.3871.3819.816.4449 1.2619l.9902-.14zm-.576-1.6338c-.2986-.5009-.6938-.9374-1.1629-1.284l-.5942.8042c.3621.2676.6675.6049.8981.9918l.859-.512zm-1.1627-1.2839c-.4689-.3467-1.0023-.5966-1.5689-.7349l-.2372.9714c.4376.1069.8494.2998 1.2115.5675l.5946-.804zm-2.1732-.3678l-.1186.4857.9714.2372.1186-.4857-.9714-.2372zM124.402 69.508l.003.0004.134-.991-.003-.0004-.134.991zm-.021-.0034c.568.1046 1.153.0962 1.717-.0251l-.21-.9776c-.436.0935-.887.1001-1.325.0193l-.182.9834zm1.717-.025c.565-.1213 1.101-.3527 1.576-.6815l-.568-.8224c-.367.2536-.781.4324-1.218.5261l.21.9778zm1.576-.6814c.475-.3284.881-.7474 1.195-1.2329l-.84-.5426c-.242.3753-.556.6991-.923.9529l.568.8226zm1.195-1.2336c.313-.4853.527-1.0274.631-1.5956l-.984-.1796c-.08.4394-.246.8587-.487 1.234l.84.5412zm.631-1.5956c1.303-7.1406 1.108-14.474-.572-21.5354l-.972.2314c1.648 6.9268 1.839 14.1202.56 21.1244l.984.1796zm-.576-21.5534l-.002-.0072-.964.2674.002.0072.964-.2674zm.001.0039c-.284-1.1197-.997-2.0823-1.985-2.6799l-.518.8558c.764.4616 1.315 1.205 1.533 2.0693l.97-.2452zm-1.985-2.6799c-.989-.5974-2.172-.782-3.295-.5135l.232.9726c.867-.2073 1.782-.0649 2.545.3967l.518-.8558zm-3.295-.5135c-1.123.2686-2.096.9685-2.706 1.9485l.848.5288c.472-.7566 1.223-1.2973 2.09-1.5047l-.232-.9726zm-2.706 1.9482c-.612.9799-.813 2.1612-.559 3.2882l.976-.2198c-.196-.87-.041-1.7821.431-2.539l-.848-.5294zm-.565 3.2549l.001.0065.988-.1532-.001-.0065-.988.1532zm.009.0461c1.407 5.8893 1.57 12.0072.481 17.9635l.984.1798c1.113-6.0929.946-12.351-.493-18.3757l-.972.2324zm.479 17.9751l-.001.0063.988.1566.001-.0063-.988-.1566zm0 .0008c-.193 1.1345.067 2.2997.725 3.2448l.82-.5714c-.508-.7295-.708-1.6293-.559-2.5058l-.986-.1676zm.724 3.2445c.657.945 1.659 1.5941 2.79 1.8081l.186-.9826c-.873-.1652-1.647-.6667-2.154-1.3963l-.822.5708zm-9.377-11.1545c-.014-6.7847-1.875-13.4386-5.382-19.2463l-.856.517c3.413 5.6523 5.224 12.1282 5.238 18.7313l1-.002zm-5.382-19.2463c-3.454-5.7204-8.3787-10.4084-14.2575-13.578l-.4746.8802c5.7216 3.0848 10.5141 7.6474 13.8761 13.2148l.856-.517zM92.8322 24.157v-5.3333h-1v5.3333h1zm0-5.3333c0-4.8597-1.9306-9.52044-5.3668-12.95681l-.7072.7071c3.2488 3.24883 5.074 7.65521 5.074 12.24971h1zM87.4654 5.86689C84.029 2.43053 79.3682.5 74.5085.5v1c4.5945 0 9.0009 1.82517 12.2497 5.07399l.7072-.7071zM74.5085.5c-4.8597 0-9.5205 1.93053-12.9569 5.36689l.7072.7071C65.5076 3.32517 69.914 1.5 74.5085 1.5v-1zM61.5516 5.86689c-3.4363 3.43637-5.3668 8.09711-5.3668 12.95681h1c0-4.5945 1.8251-9.00088 5.074-12.24971l-.7072-.7071zM56.1848 18.8237v5.564h1v-5.564h-1zm.2497 5.1311c-5.8967 3.4093-10.8076 8.2939-14.2488 14.1758l.8632.505c3.3536-5.7323 8.1395-10.4925 13.8862-13.815l-.5006-.8658zM42.1857 38.1306c-3.4909 5.967-5.3459 12.7494-5.3777 19.6626l1 .0046c.031-6.7372 1.8388-13.347 5.2409-19.1622l-.8632-.505zM36.808 67.6389c0 9.9891-3.5042 18.4275-11.0878 26.4795l.728.6856c7.74-8.2182 11.3598-16.8958 11.3598-27.1651h-1zM26.0692 93.9614c-3.747.1128-7.3098 1.6656-9.9443 4.3402l.7124.7018c2.4537-2.4912 5.7721-3.9374 9.2619-4.0424l-.03-.9996zm-9.9443 4.3402c-2.6861 2.7274-4.1915 6.4014-4.1911 10.2284h1c-.0004-3.565 1.4018-6.987 3.9035-9.5266l-.7124-.7018zM11.9338 108.53v3.92h1v-3.92h-1zm0 3.92c0 3.865 1.5355 7.572 4.2686 10.306l.7072-.708c-2.5457-2.546-3.9758-5.999-3.9758-9.598h-1zm4.2687 10.306c2.7331 2.732 6.44 4.268 10.3052 4.268v-1c-3.6 0-7.0525-1.43-9.5982-3.976l-.707.708zm10.3052 4.268H53.826v-1H26.5077v1zm26.8193-.468c.3397 5.292 2.6494 10.272 6.4836 13.952l.6924-.722c-3.6534-3.506-5.8543-8.252-6.178-13.294l-.998.064zm6.4835 13.952c3.9526 3.794 9.2192 5.913 14.698 5.913v-1c-5.2206 0-10.239-2.019-14.0054-5.635l-.6926.722zm14.698 5.913c5.4788 0 10.7454-2.119 14.698-5.913l-.6926-.722c-3.7664 3.616-8.7848 5.635-14.0054 5.635v1zm14.6979-5.913c3.8342-3.68 6.1439-8.66 6.4836-13.952l-.998-.064c-.3237 5.042-2.5246 9.788-6.178 13.294l.6924.722zm5.9846-13.484h27.318v-1H95.191v1zm27.318 0c3.866 0 7.573-1.536 10.306-4.268l-.708-.708c-2.545 2.546-5.998 3.976-9.598 3.976v1zm10.306-4.269c2.732-2.733 4.268-6.44 4.268-10.305h-1c0 3.599-1.43 7.052-3.976 9.599l.708.706zm4.268-10.305v-3.92h-1v3.92h1zm0-3.92c.001-3.827-1.505-7.501-4.191-10.2284l-.712.7018c2.502 2.5396 3.904 5.9616 3.903 9.5266h1zm-4.191-10.2284c-2.634-2.6746-6.197-4.2274-9.944-4.3402l-.03.9996c3.489.105 6.808 1.5512 9.262 4.0424l.712-.7018zm-9.595-4.1832c-7.584-8.052-11.088-16.4738-11.088-26.4795h-1c0 10.2861 3.62 18.9471 11.36 27.1651l.728-.6856zm-11.088-26.4795V56.5422h-1v11.0967h1zM65.0444 20.4053c-.2387.0645-.4803.139-.7107.2121l.3022.9532c.227-.0719.452-.1412.6693-.1999l-.2608-.9654zm-.0596.6858l-.0131-2.2703-1 .0058.0131 2.2703 1-.0058zm-.0131-2.2674v-.0001-.0004-.0001-.0001-.0001-.0001V18.8225v-.0001-.0002h-1V18.8237h1zm0-.0014c.0005-2.5289 1.0051-4.954 2.7932-6.742l-.707-.7072c-1.9757 1.9756-3.0857 4.6551-3.0862 7.449l1 .0002zm2.7933-6.742c1.7885-1.7886 4.2142-2.79334 6.7435-2.79334v-1c-2.7945 0-5.4746 1.11012-7.4507 3.08614l.7072.7072zm6.7435-2.79334c2.5293 0 4.955 1.00474 6.7434 2.79324l.7072-.707c-1.976-1.97612-4.6561-3.08624-7.4506-3.08624v1zm6.7435 2.79334c1.7885 1.7884 2.7932 4.2141 2.7932 6.7434h1c0-2.7945-1.1101-5.4746-3.0862-7.4506l-.707.7072zm2.7932 6.7434v2.1843h1v-2.1843h-1zm.6513 1.7077c-.2318-.0736-.4747-.1485-.7149-.2131l-.2596.9658c.218.0586.4439.1281.6719.2005l.3026-.9532zm-.7193-.2142l-.0027-.0007-.2508.968.0027.0007.2508-.968zm-.0008-.0002c-3.0896-.8136-6.2704-1.2296-9.4653-1.2377l-.0026 1c3.1099.0079 6.2059.4128 9.2133 1.2047l.2546-.967zm-9.4884-1.2377c-1.1437 0-2.4165-.0011-3.6349.1968l.1603.987c1.1252-.1827 2.3163-.1838 3.4746-.1838v-1zm-3.5999.1923c-1.986.1803-3.9486.5615-5.8578 1.1377l.289.9574c1.8444-.5568 3.7406-.925 5.6592-1.0991l-.0904-.996zM45.595 57.7969c-.0117-6.5326 2.1081-12.8917 6.0375-18.1103l-.7988-.6016c-4.0604 5.3926-6.2508 11.9635-6.2387 18.7137l1-.0018zm6.0375-18.1103c3.9159-5.2004 9.4157-8.9863 15.6699-10.7879l-.2768-.961C60.563 29.7994 54.88 33.7114 50.8337 39.085l.7988.6016zm15.8501-10.7899l.0709-.0215-.2902-.957-.0709.0215.2902.957zm.0708-.0215c1.3606-.4121 2.76-.6834 4.1762-.8093l-.0886-.996c-1.4844.1319-2.9514.4162-4.3776.8483l.29.957zm4.181-.8097l.0081-.0008-.0982-.9952-.0081.0008.0982.9952zm.0113-.0011c.9331-.0983 1.8654-.1472 2.7628-.1472v-1c-.9332 0-1.9003.0509-2.8674.1526l.1046.9946zm2.7628-.1472h.0012v-1h-.0012v1zm.0024 0c2.4322-.006 4.8543.3133 7.2017.9493l.2616-.9652c-2.4336-.6594-4.9445-.9903-7.4657-.9841l.0024 1zm7.2087.9511l.009.0023.2476-.9688-.009-.0023-.2476.9688zm.011.0028c6.1749 1.5507 11.6581 5.1121 15.5856 10.123l.787-.6168c-4.0644-5.1857-9.7389-8.8713-16.129-10.476l-.2436.9698zm15.5856 10.123c3.9268 5.0106 6.0758 11.1853 6.1058 17.5513l1-.0048c-.032-6.588-2.255-12.9781-6.3188-18.1633l-.787.6168zm6.1058 17.5489V56.5446h1v-.0002-.0001-.0001-.0002-.0001-.0001-.0001-.0002-.0001-.0001V56.543h-1zm0 .0016v11.0913h1V56.5446h-1zm0 11.0852c-.119 9.7932 3.028 19.3365 8.929 27.1285l.798-.6038c-5.767-7.615-8.844-16.9417-8.727-26.5125l-1-.0122zm9.328 26.3266H36.2668v1H112.75v-1zm-76.0846.8019c5.9011-7.792 9.0489-17.3353 8.9296-27.1285l-1 .0122c.1167 9.5708-2.9597 18.8975-8.7268 26.5125l.7972.6038zm8.9296-27.1224v-9.8381h-1v9.8381h1zm20.3579 66.6791c-2.1875-2.074-3.5443-4.866-3.8292-7.855l-.9954.094c.3077 3.229 1.7735 6.247 4.1366 8.487l.688-.726zm-4.3269-7.308h25.765v-1H61.626v1zm25.2673-.547c-.2849 2.989-1.6417 5.781-3.8292 7.855l.688.726c2.3631-2.24 3.8289-5.258 4.1366-8.487l-.9954-.094zm-3.8293 7.855c-2.3104 2.191-5.3721 3.414-8.556 3.417l.0009 1c3.4398-.003 6.7473-1.324 9.2433-3.691l-.6882-.726zm-8.5551 3.417c-3.1838-.003-6.2455-1.226-8.5559-3.417l-.6882.726c2.496 2.367 5.8035 3.688 9.2432 3.691l.0009-1zm53.7871-25.299c0 1.534-.609 3.006-1.695 4.091l.708.708c1.272-1.273 1.987-2.999 1.987-4.799h-1zm-1.695 4.091c-1.085 1.086-2.557 1.696-4.092 1.696v1c1.801 0 3.527-.716 4.8-1.988l-.708-.708zm-4.092 1.696H26.5077v1h96.0013v-1zm-96.0013 0c-1.5347 0-3.0066-.61-4.0919-1.696l-.7072.708c1.2727 1.272 2.999 1.988 4.7991 1.988v-1zm-4.0919-1.696c-1.0853-1.085-1.695-2.557-1.695-4.091h-1c0 1.8.7151 3.526 1.9878 4.799l.7072-.708zm-1.695-4.091v-3.903h-1v3.903h1zm0-3.903c0-1.534.6097-3.006 1.695-4.091l-.7072-.708c-1.2727 1.273-1.9878 2.999-1.9878 4.799h1zm1.695-4.091c1.0853-1.086 2.5572-1.696 4.0919-1.696v-1c-1.8001 0-3.5264.716-4.7991 1.988l.7072.708zm4.0919-1.696h96.0013v-1H26.5077v1zm96.0013 0c1.535 0 3.007.61 4.092 1.696l.708-.708c-1.273-1.272-2.999-1.988-4.8-1.988v1zm4.092 1.696c1.086 1.085 1.695 2.557 1.695 4.091h1c0-1.8-.715-3.526-1.987-4.799l-.708.708zm1.695 4.091v3.903h1v-3.903h-1zM36.808 57.7955v9.8434h1v-9.8434h-1zm37.7018-38.7162h-.0218v1h.0218v-1zm-7.3458 9.8389h.1735v-1h-.1735v1z" fill="#000000"/></svg>