<svg width="22" height="16" viewBox="0 0 22 16" fill="none" xmlns="http://www.w3.org/2000/svg">
<path d="M3.34287 0H18.2572C20.1034 0 21.6001 1.49666 21.6001 3.34287V12.0858C21.6001 13.932 20.1034 15.4286 18.2572 15.4286H3.34287C1.49665 15.4286 -1.90735e-06 13.932 -1.90735e-06 12.0858V3.34287C-1.90735e-06 1.49666 1.49665 0 3.34287 0ZM18.2572 1.54286H3.34287C2.34844 1.54286 1.54286 2.34845 1.54286 3.34287V4.1143H20.0572V3.34287C20.0572 2.34845 19.2517 1.54286 18.2572 1.54286ZM3.34287 13.8858H18.2572C19.2517 13.8858 20.0572 13.0802 20.0572 12.0858V5.65717H1.54286V12.0858C1.54286 12.5629 1.73271 13.0209 2.07021 13.3584C2.40772 13.6959 2.86577 13.8858 3.34287 13.8858Z" fill="black"/>
<path d="M11.1447 9.25673H3.88836C3.46248 9.25673 3.11693 8.91118 3.11693 8.4853C3.11693 8.05942 3.46248 7.71387 3.88836 7.71387H11.1447C11.5706 7.71387 11.9161 8.05942 11.9161 8.4853C11.9161 8.91118 11.5706 9.25673 11.1447 9.25673Z" fill="black"/>
<path d="M3.85724 10.2861H11.1447C11.5706 10.2861 11.9161 10.6317 11.9161 11.0576C11.9161 11.4834 11.5706 11.829 11.1447 11.829H3.85724C3.43136 11.829 3.08581 11.4834 3.08581 11.0576C3.08581 10.6317 3.43136 10.2861 3.85724 10.2861Z" fill="black"/>
<path d="M14.9837 7.45703H16.2694C17.2639 7.45703 18.0695 8.26261 18.0695 9.25704V10.2856C18.0695 11.28 17.2639 12.0856 16.2694 12.0856H14.9837C13.9893 12.0856 13.1837 11.28 13.1837 10.2856V9.25704C13.1837 8.77991 13.3736 8.32188 13.7111 7.98438C14.0486 7.64688 14.5066 7.45703 14.9837 7.45703ZM14.7266 10.2856C14.7266 10.3539 14.7537 10.4192 14.8019 10.4674C14.8501 10.5156 14.9154 10.5428 14.9837 10.5428H16.2694C16.4121 10.5428 16.5266 10.4272 16.5266 10.2856V9.25704C16.5266 9.11541 16.4121 8.9999 16.2694 8.9999H14.9837C14.9154 8.9999 14.8501 9.02702 14.8019 9.07523C14.7537 9.12344 14.7266 9.18874 14.7266 9.25704V10.2856Z" fill="black"/>
</svg>
