<svg width="203" height="203" viewBox="0 0 203 203" fill="none" xmlns="http://www.w3.org/2000/svg">
<path d="M70.2474 106.46L60.9769 137.228C60.4175 140.065 62.895 142.583 65.772 142.023L96.5402 132.753C98.4981 132.353 100.296 131.394 101.735 129.996L200.033 31.6972C203.989 27.7413 203.989 21.308 200.033 17.3521L185.648 2.96693C181.692 -0.988977 175.259 -0.988977 171.303 2.96693L73.0045 101.265C71.6059 102.704 70.607 104.502 70.2474 106.46Z" fill="black"/>
<path d="M192.84 101.505C187.246 101.505 182.691 106.06 182.691 111.655V182.701H20.299V20.309H91.3455C96.9397 20.309 101.495 15.7537 101.495 10.1595C101.495 4.5653 96.9397 0.0100098 91.3455 0.0100098H10.1495C4.55529 0.0100098 0 4.5653 0 10.1595V192.851C0 198.445 4.55529 203 10.1495 203H192.84C198.435 203 202.99 198.445 202.99 192.851V111.655C202.99 106.06 198.435 101.505 192.84 101.505Z" fill="black"/>
</svg>
