<svg width="22" height="22" viewBox="0 0 22 22" fill="none" xmlns="http://www.w3.org/2000/svg">
<path d="M12.3897 9.46876C12.7038 9.78808 13.1336 9.96786 13.5814 9.96872H13.8142C16.0264 9.66737 18.9987 8.96878 20.6219 7.34555C21.4283 6.53739 21.882 5.44329 21.882 4.30116C21.882 3.15904 21.4283 2.06504 20.6219 1.25677C19.8128 0.452024 18.7187 0 17.5775 0C16.4362 0 15.3422 0.452024 14.5331 1.25677C13.9381 1.88088 13.4604 2.60686 13.1222 3.40045C11.987 2.94671 10.7765 2.71471 9.55402 2.71556C8.66196 2.72155 7.77503 2.84826 6.91727 3.09226C5.02955 3.63418 3.35411 4.74282 2.11716 6.26749C0.880093 7.79221 0.141272 9.66013 0 11.619V12.3381C0.00941721 14.6155 0.829576 16.8148 2.31239 18.5431C3.79601 20.2707 5.84552 21.4145 8.09544 21.7689C8.57743 21.8511 9.06541 21.8922 9.55424 21.8922C12.097 21.8922 14.5358 20.882 16.3347 19.0843C18.1325 17.2856 19.1426 14.8466 19.1426 12.3038C19.1375 11.5599 19.0527 10.8176 18.8892 10.0916C18.8019 9.72262 18.4329 9.49403 18.0639 9.58137C17.695 9.6687 17.4664 10.0377 17.5537 10.4066C17.6316 10.7457 17.689 11.0881 17.7249 11.434C17.7712 12.451 17.3157 13.4261 16.5058 14.0433C15.4511 14.7762 13.8347 14.6666 11.8486 13.7146C10.9857 13.242 10.0037 13.028 9.02186 13.0999C8.04075 13.1718 7.09991 13.5254 6.31475 14.1187C5.64784 14.6221 5.13419 15.3018 4.83198 16.0808C4.52978 16.8599 4.45016 17.7074 4.60254 18.5293C4.63251 18.6637 4.66846 18.7964 4.71212 18.9266C3.11806 17.7597 1.99648 16.0577 1.55486 14.1324C1.77488 14.2086 2.00689 14.2462 2.23975 14.242C3.05563 14.2385 3.80985 13.807 4.22591 13.105C4.58633 12.3739 4.81833 11.5863 4.9108 10.7764C5.02723 10.1327 5.19159 9.256 5.4587 9.09163C5.61109 9.03598 5.77888 9.03598 5.93126 9.09163C6.61529 9.32791 7.35924 9.33391 8.04669 9.10789C8.73499 8.88101 9.32914 8.435 9.73922 7.83828C10.5499 6.77328 10.74 5.36064 10.2392 4.1193C11.061 4.18608 11.8675 4.38041 12.6294 4.69461C12.2895 5.78786 12.0446 6.90859 11.8965 8.04364C11.8255 8.57013 12.0087 9.09836 12.3896 9.4682L12.3897 9.46876ZM5.93794 18.2489C5.84633 17.6761 5.91225 17.0897 6.12799 16.5521C6.34373 16.0136 6.70159 15.5444 7.16389 15.1943C7.75289 14.7628 8.45403 14.5111 9.18343 14.4692C9.91197 14.4264 10.6379 14.595 11.2732 14.9546C14.3279 16.4134 16.2044 15.9066 17.2454 15.2011C16.6564 16.7652 15.6051 18.1118 14.2301 19.063C12.8561 20.0133 11.2252 20.5227 9.55408 20.5227C9.1714 20.521 8.78872 20.491 8.41031 20.4336C7.04054 20.0638 6.16389 19.2899 5.93793 18.2488L5.93794 18.2489ZM8.67747 7.09216C8.17752 7.83782 7.23494 8.14859 6.38985 7.84553C5.85906 7.63322 5.2598 7.67088 4.75983 7.94826C3.95852 8.43454 3.77359 9.46871 3.56813 10.5646C3.49279 11.2144 3.31473 11.8479 3.04078 12.4412C2.83017 12.7914 2.41925 12.9677 2.02031 12.8795C1.60938 12.7631 1.38338 12.3385 1.33543 11.7152C1.46384 9.95336 2.15729 8.27964 3.31131 6.94165C4.46619 5.6044 6.0217 4.6755 7.74586 4.29109C8.18333 4.14898 8.66446 4.27739 8.97181 4.61984C9.36904 5.18144 9.22521 6.31151 8.6499 7.09221L8.67747 7.09216ZM15.5263 2.20219C16.0725 1.6286 16.8276 1.299 17.6195 1.28958C18.4114 1.28016 19.1742 1.59093 19.7341 2.15168C20.294 2.71243 20.603 3.47522 20.5928 4.26796C20.5816 5.05986 20.2512 5.81409 19.6767 6.35943C18.6151 7.40045 16.4029 8.19492 13.6633 8.59226C13.5632 8.60938 13.4604 8.57685 13.3885 8.50408C13.3157 8.43217 13.2832 8.32944 13.3003 8.22928C13.4921 6.59239 14.0811 3.62685 15.4988 2.20229L15.5263 2.20219Z" fill="black"/>
<path d="M17.5741 6.32541C18.5552 6.32627 19.4002 5.63281 19.5911 4.67056C19.782 3.7083 19.2666 2.74517 18.3592 2.3711C17.4517 1.99703 16.4073 2.31717 15.8644 3.1339C15.3217 3.95148 15.4321 5.03873 16.129 5.72966C16.5134 6.11063 17.033 6.32465 17.5741 6.32552L17.5741 6.32541ZM17.0879 3.80504C17.2137 3.68005 17.3832 3.60899 17.5604 3.60642C17.7402 3.60728 17.9123 3.67833 18.0398 3.80504C18.2462 4.07643 18.2222 4.45825 17.9825 4.70052C17.7436 4.94366 17.3618 4.97362 17.0879 4.77072C16.8225 4.5036 16.8225 4.07213 17.0879 3.80504L17.0879 3.80504Z" fill="black"/>
</svg>
