<svg width="23" height="18" viewBox="0 0 23 18" fill="none" xmlns="http://www.w3.org/2000/svg">
<path fill-rule="evenodd" clip-rule="evenodd" d="M10.0901 1.63637C11.1578 1.63637 11.5311 1.64352 11.8165 1.72023C12.6633 1.94727 13.325 2.60897 13.552 3.45579C13.6287 3.74112 13.6359 4.11442 13.6359 5.18216V14.1821H10.3181C10.0584 12.6337 8.71248 11.4545 7.09047 11.4545C5.47969 11.4545 4.13978 12.6184 3.86776 14.1515C3.52412 14.0543 3.27254 13.7383 3.27254 13.364V10.6364H1.63618V13.364C1.63618 14.6905 2.68754 15.7705 4.0038 15.8165C4.45174 17.0888 5.66471 18 7.09036 18C8.51501 18 9.72791 17.0898 10.1769 15.8185H13.8219C14.2709 17.0898 15.4839 18 16.9085 18C18.3608 18 19.5911 17.054 20.0197 15.7459C21.1754 15.4861 22.0733 14.5698 22.3055 13.4039C22.3638 13.1114 22.3638 12.781 22.3628 12.3525V10.9933C22.3638 9.97674 22.3638 9.27209 22.1367 8.61754C22.0498 8.368 21.9393 8.12766 21.8064 7.89857C21.4577 7.30131 20.9217 6.84313 20.1506 6.18141L19.8714 5.94312C19.1841 5.35301 18.7076 4.94494 18.1348 4.69744C18.0039 4.64119 17.8689 4.59108 17.7319 4.54812C17.1366 4.36301 16.5087 4.36301 15.6036 4.36404H15.2722V4.09096H15.263C15.2497 3.68085 15.216 3.3413 15.1331 3.03243C14.7547 1.62006 13.6522 0.517547 12.2398 0.13909C11.7182 -2.49688e-07 11.1087 0 10.2168 0H6.20867C5.76277 0 5.45901 -9.36331e-08 5.19311 0.0347719C3.35732 0.277157 1.91228 1.72124 1.67088 3.557C1.63611 3.82392 1.63611 4.12768 1.63611 4.57358V4.63597H3.27247C3.27247 4.10417 3.27349 3.91699 3.29292 3.77074C3.43815 2.66928 4.3044 1.80201 5.40586 1.6578C5.55211 1.63837 5.73926 1.63632 6.27211 1.63632L10.0901 1.63637ZM15.2723 6.00034V11.8923C15.7539 11.6141 16.3124 11.4545 16.9086 11.4545C18.455 11.4545 19.7517 12.5274 20.0934 13.9704C20.4022 13.7741 20.6262 13.457 20.7008 13.0837C20.7223 12.9723 20.7264 12.8189 20.7264 12.2727V11.1262C20.7264 9.92351 20.7162 9.51547 20.5914 9.15445C20.5393 9.00513 20.4728 8.8599 20.393 8.72287C20.1997 8.39355 19.897 8.11946 18.9837 7.33707L18.8968 7.26241C18.0847 6.56592 17.8035 6.33683 17.4875 6.20082C17.4087 6.16605 17.3279 6.13639 17.2451 6.11082C16.9168 6.00855 16.5537 6.00036 15.485 6.00036L15.2723 6.00034ZM16.9086 16.3636C16.0045 16.3636 15.2723 15.6313 15.2723 14.7272C15.2723 13.8231 16.0045 13.0909 16.9086 13.0909C17.8127 13.0909 18.545 13.8231 18.545 14.7272C18.545 15.6313 17.8127 16.3636 16.9086 16.3636ZM5.4541 14.7272C5.4541 13.8231 6.18638 13.0909 7.09046 13.0909C7.99454 13.0909 8.72682 13.8231 8.72682 14.7272C8.72682 15.6313 7.99454 16.3636 7.09046 16.3636C6.18638 16.3636 5.4541 15.6313 5.4541 14.7272Z" fill="black"/>
<path d="M0.818179 5.4541C0.366125 5.4541 0 5.82125 0 6.27228C0 6.72433 0.366125 7.09046 0.818179 7.09046H7.36361C7.81464 7.09046 8.18179 6.72433 8.18179 6.27228C8.18179 5.82125 7.81464 5.4541 7.36361 5.4541H0.818179Z" fill="black"/>
<path d="M1.09021 8.99982C1.09021 8.54777 1.45736 8.18164 1.90839 8.18164H8.45382C8.90587 8.18164 9.272 8.54777 9.272 8.99982C9.272 9.45187 8.90587 9.818 8.45382 9.818H1.90839C1.45736 9.818 1.09021 9.45187 1.09021 8.99982Z" fill="black"/>
</svg>
