<svg width="53" height="53" viewBox="0 0 53 53" fill="none" xmlns="http://www.w3.org/2000/svg">
<circle cx="26.5" cy="26.5" r="26.5" fill="#DDF2ED"/>
<path d="M35.1108 32.7138C34.1788 31.3811 30.4211 28.204 30.4211 28.204L26.5001 27.5576L20.0365 29.7317L17.9346 32.6069C17.316 33.453 17.0092 34.4871 17.0662 35.5337L17.1737 37.5133L19.3901 39.0746L27.2052 40.2498L33.61 38.8395L36.7243 36.3716C36.7243 36.3716 35.6837 33.5329 35.1108 32.7138Z" fill="#00D2C4"/>
<path d="M25.7364 11.4575H27.2641C27.3887 11.4781 27.5121 11.5034 27.6372 11.5163C28.0644 11.5662 28.4957 11.5903 28.9188 11.6632C32.5619 12.2919 35.5904 14.0077 37.9819 16.8217C39.8241 18.99 40.9528 21.4937 41.3642 24.3136C41.4329 24.7837 41.4817 25.2614 41.5404 25.735V27.2628C41.521 27.3674 41.4946 27.4714 41.4817 27.5766C41.4335 28.0037 41.4117 28.4356 41.3401 28.8593C40.7166 32.5559 38.975 35.6261 36.1063 38.0364C33.9909 39.8332 31.4064 40.9885 28.6567 41.3664C28.1937 41.4328 27.7283 41.4839 27.2641 41.5426H25.7364C25.6124 41.5221 25.489 41.4909 25.3638 41.4839C23.4961 41.3487 21.6707 40.8618 19.9838 40.049C19.6759 39.9021 19.4649 39.6629 19.3962 39.3227C19.311 38.8967 19.412 38.5183 19.7593 38.2433C20.1359 37.9442 20.5484 37.9495 20.9739 38.1504C23.3331 39.2669 25.8092 39.6194 28.3858 39.2504C30.8097 38.8978 32.9562 37.9183 34.8248 36.3371C34.917 36.2589 35.001 36.0903 34.9863 35.9787C34.1872 30.3265 28.0327 26.9978 22.8742 29.4616C19.9174 30.8718 18.2962 33.281 17.9383 36.5351C17.8796 37.0375 17.6104 37.3413 17.1744 37.5152C16.7255 37.6944 16.3236 37.5669 15.9916 37.2373C13.6077 34.874 12.1446 32.0382 11.6398 28.7171C11.567 28.2353 11.5182 27.7505 11.4583 27.2669V25.7362C11.5252 25.1944 11.5717 24.6491 11.6616 24.1115C12.1851 20.969 13.5536 18.2461 15.7901 15.9768C18.1463 13.5872 20.988 12.1403 24.315 11.6361C24.7868 11.5651 25.2622 11.5163 25.7364 11.4575ZM30.2127 27.1635C33.5162 28.4944 35.712 30.836 36.8091 34.2147C40.2277 29.9522 40.7149 22.3804 35.5498 17.2983C30.3114 12.1444 21.8453 12.3912 16.9329 17.8318C12.1652 23.1126 13.043 30.3688 16.1961 34.1929C17.2949 30.824 19.4908 28.4817 22.7837 27.1658C20.324 24.7238 20.8522 21.1006 22.9517 19.2644C23.9479 18.3919 25.2306 17.9172 26.5547 17.9309C27.8789 17.9447 29.1515 18.446 30.1292 19.339C32.1947 21.2328 32.6113 24.7596 30.2127 27.1635ZM26.4867 26.5095C27.1278 26.5122 27.7551 26.3244 28.2894 25.9701C28.8236 25.6158 29.2406 25.1109 29.4875 24.5193C29.7345 23.9278 29.8002 23.2762 29.6764 22.6472C29.5526 22.0183 29.2448 21.4402 28.7921 20.9864C28.3394 20.5325 27.7622 20.2233 27.1335 20.0979C26.5049 19.9725 25.8531 20.0365 25.2609 20.282C24.6687 20.5274 24.1627 20.9431 23.8071 21.4764C23.4514 22.0097 23.2621 22.6366 23.2632 23.2777C23.2622 23.7017 23.3448 24.1217 23.5063 24.5137C23.6679 24.9057 23.9052 25.262 24.2046 25.5622C24.504 25.8624 24.8597 26.1006 25.2513 26.2632C25.6429 26.4257 26.0627 26.5094 26.4867 26.5095Z" fill="#535C7D"/>
<circle cx="43.5291" cy="18.4906" r="1.43489" fill="white"/>
<circle cx="46.9461" cy="14.5277" r="1.98185" fill="white"/>
<circle cx="42.094" cy="13.6389" r="0.546607" fill="white"/>
</svg>
