<svg width="25" height="23" viewBox="0 0 25 23" fill="none" xmlns="http://www.w3.org/2000/svg">
<mask id="path-1-outside-1_2527_13345" maskUnits="userSpaceOnUse" x="0" y="0" width="25" height="23" fill="black">
<rect fill="white" width="25" height="23"/>
<path d="M1.97845 5.39611L2.30566 5.5647C2.89149 5.86644 3.01579 6.36795 3.13577 6.55348C3.47143 7.20498 4.40428 7.20512 4.73999 6.55348C4.86343 6.36265 4.98706 5.86505 5.57014 5.5647L5.89731 5.39615C6.54877 5.06054 6.549 4.12764 5.89731 3.79194C5.70648 3.66849 5.20888 3.54491 4.90853 2.96182L4.73999 2.63466C4.40437 1.9832 3.47148 1.98302 3.13577 2.63461C3.01529 2.82086 2.89001 3.32241 2.30561 3.62339L1.9784 3.79194C1.32699 4.12751 1.32681 5.0604 1.97845 5.39611ZM2.28706 4.39093L2.61427 4.22238C3.42336 3.80555 3.62071 3.11487 3.73485 2.94314C3.82003 2.77778 4.05582 2.77773 4.14104 2.94314L4.30959 3.2703C4.72642 4.07944 5.41759 4.27705 5.58879 4.39084C5.75415 4.47606 5.75424 4.71185 5.58879 4.79707L5.26162 4.96562C4.45248 5.38245 4.25496 6.07344 4.14104 6.24482C4.05587 6.41018 3.82007 6.41022 3.7349 6.24482C3.62282 6.07623 3.42265 5.382 2.61432 4.96562L2.28711 4.79703C2.1217 4.71194 2.12166 4.4761 2.28706 4.39093ZM8.59457 20.1487C11.6346 20.1487 14.1079 17.6755 14.1079 14.6354C14.1079 11.5954 11.6346 9.12217 8.59457 9.12217C5.55451 9.12217 3.08128 11.5954 3.08128 14.6354C3.08128 17.6755 5.55456 20.1487 8.59457 20.1487ZM8.59457 9.796C11.2631 9.796 13.4341 11.967 13.4341 14.6354C13.4341 17.3039 11.2631 19.4749 8.59457 19.4749C5.92606 19.4749 3.75511 17.3039 3.75511 14.6354C3.75511 11.967 5.92611 9.796 8.59457 9.796ZM22.7671 11.6395H21.9967C22.0826 11.4715 22.1316 11.2817 22.1316 11.0803V9.82448C22.1316 9.59124 22.0658 9.37346 21.9529 9.1873C22.4206 9.01202 22.7545 8.5605 22.7545 8.03236V6.77656C22.7545 6.53578 22.685 6.30236 22.5534 6.10152C22.4514 5.94586 22.2425 5.90238 22.0869 6.00431C21.9313 6.10628 21.8877 6.31512 21.9897 6.47078C22.0492 6.56156 22.0807 6.66731 22.0807 6.77656V8.03236C22.0807 8.34066 21.8298 8.5915 21.5215 8.5915H13.1877C12.2654 7.88892 11.1783 7.39235 9.99537 7.17084V6.77656C9.99537 6.46826 10.2462 6.21742 10.5545 6.21742H17.0419L17.1187 6.36651C17.4241 6.95944 18.05 6.93244 18.0439 6.93064C18.4352 6.93064 18.7898 6.71448 18.969 6.36651L19.0459 6.21742H20.804C20.9901 6.21742 21.1409 6.06657 21.1409 5.8805C21.1409 5.69443 20.9901 5.54359 20.804 5.54359H19.4657C19.8149 5.15281 20.1593 5.0556 20.4453 4.89024C21.1967 4.50319 21.197 3.42713 20.4454 3.03994L20.038 2.83007C19.667 2.63897 19.3699 2.3419 19.1788 1.97093L18.969 1.56363C18.5819 0.812304 17.5058 0.811945 17.1187 1.56363L16.9089 1.97093C16.7178 2.34186 16.4207 2.63897 16.0497 2.83007L15.6424 3.0399C14.891 3.42699 14.8908 4.50306 15.6424 4.89019C15.9312 5.05712 16.2711 5.1507 16.622 5.54354H10.5545C9.87467 5.54354 9.32154 6.09667 9.32154 6.77652V7.07579C4.86572 6.65069 1 10.1584 1 14.6354C1 16.6889 1.80667 18.6127 3.27139 20.0522C3.40414 20.1827 3.61747 20.1808 3.74784 20.0481C3.87825 19.9154 3.8764 19.7021 3.7437 19.5717C2.40894 18.2598 1.67383 16.5068 1.67383 14.6354C1.67383 10.8193 4.77848 7.71471 8.59457 7.71471C12.4107 7.71471 15.5153 10.8194 15.5153 14.6354C15.5153 18.4515 12.4107 21.5562 8.59457 21.5562C7.30598 21.5562 6.04865 21.1997 4.95862 20.5253C4.80041 20.4273 4.59273 20.4763 4.49485 20.6346C4.39696 20.7928 4.44584 21.0005 4.6041 21.0983C5.80073 21.8387 7.1806 22.23 8.59457 22.23C11.4096 22.23 13.8718 20.6904 15.1835 18.4091H21.5214C22.2013 18.4091 22.7544 17.856 22.7544 17.1762V15.9204C22.7544 15.7191 22.7055 15.5292 22.6196 15.3612H22.767C23.4469 15.3612 24 14.8081 24 14.1282V12.8724C24.0001 12.1926 23.447 11.6395 22.7671 11.6395ZM15.951 4.2912C15.6852 4.15437 15.6855 3.77568 15.951 3.63889C16.1669 3.49568 17.003 3.25948 17.5078 2.2795L17.7177 1.8722C17.8546 1.60644 18.2332 1.60675 18.37 1.8722L18.5798 2.2795C19.0844 3.25912 19.9217 3.49635 20.1366 3.63893C20.4023 3.77577 20.4021 4.15446 20.1366 4.29125C19.9201 4.43482 19.0847 4.67061 18.5798 5.65059V5.65063L18.37 6.05794C18.233 6.32375 17.8544 6.32343 17.7177 6.05799L17.5078 5.65063C17.0035 4.67165 16.1638 4.43244 15.951 4.2912ZM13.9598 9.26538H20.8987C21.207 9.26538 21.4578 9.51622 21.4578 9.82452V11.0804C21.4578 11.3887 21.207 11.6395 20.8987 11.6395H15.5727C15.1882 10.7472 14.6377 9.94262 13.9598 9.26538ZM22.0807 17.1762C22.0807 17.4845 21.8298 17.7353 21.5215 17.7353H15.5272C15.8581 16.9983 16.0744 16.1995 16.1543 15.3613H21.5215C21.8298 15.3613 22.0806 15.6121 22.0806 15.9204V17.1762H22.0807ZM23.3263 14.1282C23.3263 14.4365 23.0754 14.6874 22.7671 14.6874H16.1885C16.1886 14.67 16.1892 14.6528 16.1892 14.6354C16.1892 13.8258 16.0613 13.0456 15.8256 12.3133H22.7671C23.0754 12.3133 23.3263 12.5641 23.3263 12.8724V14.1282ZM7.12265 16.942C7.55336 17.2237 7.8476 17.3078 8.22751 17.3291V17.6935C8.22751 17.8795 8.37836 18.0304 8.56442 18.0304C8.75049 18.0304 8.90134 17.8795 8.90134 17.6935V17.3023C10.3831 17.0116 10.7944 14.8544 9.19904 14.2904C9.10124 14.2558 9.00116 14.2196 8.90134 14.1818V12.5886C9.15236 12.6487 9.30191 12.7757 9.31489 12.787C9.45177 12.911 9.66317 12.9017 9.78864 12.7657C9.91478 12.6289 9.9062 12.4158 9.76941 12.2896C9.75028 12.272 9.42832 11.9819 8.90134 11.9028V11.5774C8.90134 11.3914 8.75049 11.2405 8.56442 11.2405C8.37836 11.2405 8.22751 11.3914 8.22751 11.5774V11.9287C8.17751 11.9397 8.12679 11.9523 8.07491 11.968C7.0528 12.2759 6.79593 13.6586 7.53054 14.2348C7.70704 14.3732 7.92667 14.5 8.22751 14.6339V16.654C7.96723 16.6348 7.787 16.5713 7.49155 16.3781C7.33576 16.2762 7.12696 16.3198 7.02517 16.4755C6.92329 16.6313 6.96695 16.8401 7.12265 16.942ZM8.90134 14.8995C8.92564 14.9083 8.94945 14.9169 8.97447 14.9257C9.84569 15.2337 9.63438 16.3402 8.90134 16.6025V14.8995ZM7.94639 13.7046C7.65349 13.4748 7.76059 12.804 8.22751 12.6277V13.8843C8.12172 13.8269 8.02599 13.767 7.94639 13.7046Z"/>
</mask>
<path d="M1.97845 5.39611L2.30566 5.5647C2.89149 5.86644 3.01579 6.36795 3.13577 6.55348C3.47143 7.20498 4.40428 7.20512 4.73999 6.55348C4.86343 6.36265 4.98706 5.86505 5.57014 5.5647L5.89731 5.39615C6.54877 5.06054 6.549 4.12764 5.89731 3.79194C5.70648 3.66849 5.20888 3.54491 4.90853 2.96182L4.73999 2.63466C4.40437 1.9832 3.47148 1.98302 3.13577 2.63461C3.01529 2.82086 2.89001 3.32241 2.30561 3.62339L1.9784 3.79194C1.32699 4.12751 1.32681 5.0604 1.97845 5.39611ZM2.28706 4.39093L2.61427 4.22238C3.42336 3.80555 3.62071 3.11487 3.73485 2.94314C3.82003 2.77778 4.05582 2.77773 4.14104 2.94314L4.30959 3.2703C4.72642 4.07944 5.41759 4.27705 5.58879 4.39084C5.75415 4.47606 5.75424 4.71185 5.58879 4.79707L5.26162 4.96562C4.45248 5.38245 4.25496 6.07344 4.14104 6.24482C4.05587 6.41018 3.82007 6.41022 3.7349 6.24482C3.62282 6.07623 3.42265 5.382 2.61432 4.96562L2.28711 4.79703C2.1217 4.71194 2.12166 4.4761 2.28706 4.39093ZM8.59457 20.1487C11.6346 20.1487 14.1079 17.6755 14.1079 14.6354C14.1079 11.5954 11.6346 9.12217 8.59457 9.12217C5.55451 9.12217 3.08128 11.5954 3.08128 14.6354C3.08128 17.6755 5.55456 20.1487 8.59457 20.1487ZM8.59457 9.796C11.2631 9.796 13.4341 11.967 13.4341 14.6354C13.4341 17.3039 11.2631 19.4749 8.59457 19.4749C5.92606 19.4749 3.75511 17.3039 3.75511 14.6354C3.75511 11.967 5.92611 9.796 8.59457 9.796ZM22.7671 11.6395H21.9967C22.0826 11.4715 22.1316 11.2817 22.1316 11.0803V9.82448C22.1316 9.59124 22.0658 9.37346 21.9529 9.1873C22.4206 9.01202 22.7545 8.5605 22.7545 8.03236V6.77656C22.7545 6.53578 22.685 6.30236 22.5534 6.10152C22.4514 5.94586 22.2425 5.90238 22.0869 6.00431C21.9313 6.10628 21.8877 6.31512 21.9897 6.47078C22.0492 6.56156 22.0807 6.66731 22.0807 6.77656V8.03236C22.0807 8.34066 21.8298 8.5915 21.5215 8.5915H13.1877C12.2654 7.88892 11.1783 7.39235 9.99537 7.17084V6.77656C9.99537 6.46826 10.2462 6.21742 10.5545 6.21742H17.0419L17.1187 6.36651C17.4241 6.95944 18.05 6.93244 18.0439 6.93064C18.4352 6.93064 18.7898 6.71448 18.969 6.36651L19.0459 6.21742H20.804C20.9901 6.21742 21.1409 6.06657 21.1409 5.8805C21.1409 5.69443 20.9901 5.54359 20.804 5.54359H19.4657C19.8149 5.15281 20.1593 5.0556 20.4453 4.89024C21.1967 4.50319 21.197 3.42713 20.4454 3.03994L20.038 2.83007C19.667 2.63897 19.3699 2.3419 19.1788 1.97093L18.969 1.56363C18.5819 0.812304 17.5058 0.811945 17.1187 1.56363L16.9089 1.97093C16.7178 2.34186 16.4207 2.63897 16.0497 2.83007L15.6424 3.0399C14.891 3.42699 14.8908 4.50306 15.6424 4.89019C15.9312 5.05712 16.2711 5.1507 16.622 5.54354H10.5545C9.87467 5.54354 9.32154 6.09667 9.32154 6.77652V7.07579C4.86572 6.65069 1 10.1584 1 14.6354C1 16.6889 1.80667 18.6127 3.27139 20.0522C3.40414 20.1827 3.61747 20.1808 3.74784 20.0481C3.87825 19.9154 3.8764 19.7021 3.7437 19.5717C2.40894 18.2598 1.67383 16.5068 1.67383 14.6354C1.67383 10.8193 4.77848 7.71471 8.59457 7.71471C12.4107 7.71471 15.5153 10.8194 15.5153 14.6354C15.5153 18.4515 12.4107 21.5562 8.59457 21.5562C7.30598 21.5562 6.04865 21.1997 4.95862 20.5253C4.80041 20.4273 4.59273 20.4763 4.49485 20.6346C4.39696 20.7928 4.44584 21.0005 4.6041 21.0983C5.80073 21.8387 7.1806 22.23 8.59457 22.23C11.4096 22.23 13.8718 20.6904 15.1835 18.4091H21.5214C22.2013 18.4091 22.7544 17.856 22.7544 17.1762V15.9204C22.7544 15.7191 22.7055 15.5292 22.6196 15.3612H22.767C23.4469 15.3612 24 14.8081 24 14.1282V12.8724C24.0001 12.1926 23.447 11.6395 22.7671 11.6395ZM15.951 4.2912C15.6852 4.15437 15.6855 3.77568 15.951 3.63889C16.1669 3.49568 17.003 3.25948 17.5078 2.2795L17.7177 1.8722C17.8546 1.60644 18.2332 1.60675 18.37 1.8722L18.5798 2.2795C19.0844 3.25912 19.9217 3.49635 20.1366 3.63893C20.4023 3.77577 20.4021 4.15446 20.1366 4.29125C19.9201 4.43482 19.0847 4.67061 18.5798 5.65059V5.65063L18.37 6.05794C18.233 6.32375 17.8544 6.32343 17.7177 6.05799L17.5078 5.65063C17.0035 4.67165 16.1638 4.43244 15.951 4.2912ZM13.9598 9.26538H20.8987C21.207 9.26538 21.4578 9.51622 21.4578 9.82452V11.0804C21.4578 11.3887 21.207 11.6395 20.8987 11.6395H15.5727C15.1882 10.7472 14.6377 9.94262 13.9598 9.26538ZM22.0807 17.1762C22.0807 17.4845 21.8298 17.7353 21.5215 17.7353H15.5272C15.8581 16.9983 16.0744 16.1995 16.1543 15.3613H21.5215C21.8298 15.3613 22.0806 15.6121 22.0806 15.9204V17.1762H22.0807ZM23.3263 14.1282C23.3263 14.4365 23.0754 14.6874 22.7671 14.6874H16.1885C16.1886 14.67 16.1892 14.6528 16.1892 14.6354C16.1892 13.8258 16.0613 13.0456 15.8256 12.3133H22.7671C23.0754 12.3133 23.3263 12.5641 23.3263 12.8724V14.1282ZM7.12265 16.942C7.55336 17.2237 7.8476 17.3078 8.22751 17.3291V17.6935C8.22751 17.8795 8.37836 18.0304 8.56442 18.0304C8.75049 18.0304 8.90134 17.8795 8.90134 17.6935V17.3023C10.3831 17.0116 10.7944 14.8544 9.19904 14.2904C9.10124 14.2558 9.00116 14.2196 8.90134 14.1818V12.5886C9.15236 12.6487 9.30191 12.7757 9.31489 12.787C9.45177 12.911 9.66317 12.9017 9.78864 12.7657C9.91478 12.6289 9.9062 12.4158 9.76941 12.2896C9.75028 12.272 9.42832 11.9819 8.90134 11.9028V11.5774C8.90134 11.3914 8.75049 11.2405 8.56442 11.2405C8.37836 11.2405 8.22751 11.3914 8.22751 11.5774V11.9287C8.17751 11.9397 8.12679 11.9523 8.07491 11.968C7.0528 12.2759 6.79593 13.6586 7.53054 14.2348C7.70704 14.3732 7.92667 14.5 8.22751 14.6339V16.654C7.96723 16.6348 7.787 16.5713 7.49155 16.3781C7.33576 16.2762 7.12696 16.3198 7.02517 16.4755C6.92329 16.6313 6.96695 16.8401 7.12265 16.942ZM8.90134 14.8995C8.92564 14.9083 8.94945 14.9169 8.97447 14.9257C9.84569 15.2337 9.63438 16.3402 8.90134 16.6025V14.8995ZM7.94639 13.7046C7.65349 13.4748 7.76059 12.804 8.22751 12.6277V13.8843C8.12172 13.8269 8.02599 13.767 7.94639 13.7046Z" fill="black"/>
<path d="M1.97845 5.39611L2.30566 5.5647C2.89149 5.86644 3.01579 6.36795 3.13577 6.55348C3.47143 7.20498 4.40428 7.20512 4.73999 6.55348C4.86343 6.36265 4.98706 5.86505 5.57014 5.5647L5.89731 5.39615C6.54877 5.06054 6.549 4.12764 5.89731 3.79194C5.70648 3.66849 5.20888 3.54491 4.90853 2.96182L4.73999 2.63466C4.40437 1.9832 3.47148 1.98302 3.13577 2.63461C3.01529 2.82086 2.89001 3.32241 2.30561 3.62339L1.9784 3.79194C1.32699 4.12751 1.32681 5.0604 1.97845 5.39611ZM2.28706 4.39093L2.61427 4.22238C3.42336 3.80555 3.62071 3.11487 3.73485 2.94314C3.82003 2.77778 4.05582 2.77773 4.14104 2.94314L4.30959 3.2703C4.72642 4.07944 5.41759 4.27705 5.58879 4.39084C5.75415 4.47606 5.75424 4.71185 5.58879 4.79707L5.26162 4.96562C4.45248 5.38245 4.25496 6.07344 4.14104 6.24482C4.05587 6.41018 3.82007 6.41022 3.7349 6.24482C3.62282 6.07623 3.42265 5.382 2.61432 4.96562L2.28711 4.79703C2.1217 4.71194 2.12166 4.4761 2.28706 4.39093ZM8.59457 20.1487C11.6346 20.1487 14.1079 17.6755 14.1079 14.6354C14.1079 11.5954 11.6346 9.12217 8.59457 9.12217C5.55451 9.12217 3.08128 11.5954 3.08128 14.6354C3.08128 17.6755 5.55456 20.1487 8.59457 20.1487ZM8.59457 9.796C11.2631 9.796 13.4341 11.967 13.4341 14.6354C13.4341 17.3039 11.2631 19.4749 8.59457 19.4749C5.92606 19.4749 3.75511 17.3039 3.75511 14.6354C3.75511 11.967 5.92611 9.796 8.59457 9.796ZM22.7671 11.6395H21.9967C22.0826 11.4715 22.1316 11.2817 22.1316 11.0803V9.82448C22.1316 9.59124 22.0658 9.37346 21.9529 9.1873C22.4206 9.01202 22.7545 8.5605 22.7545 8.03236V6.77656C22.7545 6.53578 22.685 6.30236 22.5534 6.10152C22.4514 5.94586 22.2425 5.90238 22.0869 6.00431C21.9313 6.10628 21.8877 6.31512 21.9897 6.47078C22.0492 6.56156 22.0807 6.66731 22.0807 6.77656V8.03236C22.0807 8.34066 21.8298 8.5915 21.5215 8.5915H13.1877C12.2654 7.88892 11.1783 7.39235 9.99537 7.17084V6.77656C9.99537 6.46826 10.2462 6.21742 10.5545 6.21742H17.0419L17.1187 6.36651C17.4241 6.95944 18.05 6.93244 18.0439 6.93064C18.4352 6.93064 18.7898 6.71448 18.969 6.36651L19.0459 6.21742H20.804C20.9901 6.21742 21.1409 6.06657 21.1409 5.8805C21.1409 5.69443 20.9901 5.54359 20.804 5.54359H19.4657C19.8149 5.15281 20.1593 5.0556 20.4453 4.89024C21.1967 4.50319 21.197 3.42713 20.4454 3.03994L20.038 2.83007C19.667 2.63897 19.3699 2.3419 19.1788 1.97093L18.969 1.56363C18.5819 0.812304 17.5058 0.811945 17.1187 1.56363L16.9089 1.97093C16.7178 2.34186 16.4207 2.63897 16.0497 2.83007L15.6424 3.0399C14.891 3.42699 14.8908 4.50306 15.6424 4.89019C15.9312 5.05712 16.2711 5.1507 16.622 5.54354H10.5545C9.87467 5.54354 9.32154 6.09667 9.32154 6.77652V7.07579C4.86572 6.65069 1 10.1584 1 14.6354C1 16.6889 1.80667 18.6127 3.27139 20.0522C3.40414 20.1827 3.61747 20.1808 3.74784 20.0481C3.87825 19.9154 3.8764 19.7021 3.7437 19.5717C2.40894 18.2598 1.67383 16.5068 1.67383 14.6354C1.67383 10.8193 4.77848 7.71471 8.59457 7.71471C12.4107 7.71471 15.5153 10.8194 15.5153 14.6354C15.5153 18.4515 12.4107 21.5562 8.59457 21.5562C7.30598 21.5562 6.04865 21.1997 4.95862 20.5253C4.80041 20.4273 4.59273 20.4763 4.49485 20.6346C4.39696 20.7928 4.44584 21.0005 4.6041 21.0983C5.80073 21.8387 7.1806 22.23 8.59457 22.23C11.4096 22.23 13.8718 20.6904 15.1835 18.4091H21.5214C22.2013 18.4091 22.7544 17.856 22.7544 17.1762V15.9204C22.7544 15.7191 22.7055 15.5292 22.6196 15.3612H22.767C23.4469 15.3612 24 14.8081 24 14.1282V12.8724C24.0001 12.1926 23.447 11.6395 22.7671 11.6395ZM15.951 4.2912C15.6852 4.15437 15.6855 3.77568 15.951 3.63889C16.1669 3.49568 17.003 3.25948 17.5078 2.2795L17.7177 1.8722C17.8546 1.60644 18.2332 1.60675 18.37 1.8722L18.5798 2.2795C19.0844 3.25912 19.9217 3.49635 20.1366 3.63893C20.4023 3.77577 20.4021 4.15446 20.1366 4.29125C19.9201 4.43482 19.0847 4.67061 18.5798 5.65059V5.65063L18.37 6.05794C18.233 6.32375 17.8544 6.32343 17.7177 6.05799L17.5078 5.65063C17.0035 4.67165 16.1638 4.43244 15.951 4.2912ZM13.9598 9.26538H20.8987C21.207 9.26538 21.4578 9.51622 21.4578 9.82452V11.0804C21.4578 11.3887 21.207 11.6395 20.8987 11.6395H15.5727C15.1882 10.7472 14.6377 9.94262 13.9598 9.26538ZM22.0807 17.1762C22.0807 17.4845 21.8298 17.7353 21.5215 17.7353H15.5272C15.8581 16.9983 16.0744 16.1995 16.1543 15.3613H21.5215C21.8298 15.3613 22.0806 15.6121 22.0806 15.9204V17.1762H22.0807ZM23.3263 14.1282C23.3263 14.4365 23.0754 14.6874 22.7671 14.6874H16.1885C16.1886 14.67 16.1892 14.6528 16.1892 14.6354C16.1892 13.8258 16.0613 13.0456 15.8256 12.3133H22.7671C23.0754 12.3133 23.3263 12.5641 23.3263 12.8724V14.1282ZM7.12265 16.942C7.55336 17.2237 7.8476 17.3078 8.22751 17.3291V17.6935C8.22751 17.8795 8.37836 18.0304 8.56442 18.0304C8.75049 18.0304 8.90134 17.8795 8.90134 17.6935V17.3023C10.3831 17.0116 10.7944 14.8544 9.19904 14.2904C9.10124 14.2558 9.00116 14.2196 8.90134 14.1818V12.5886C9.15236 12.6487 9.30191 12.7757 9.31489 12.787C9.45177 12.911 9.66317 12.9017 9.78864 12.7657C9.91478 12.6289 9.9062 12.4158 9.76941 12.2896C9.75028 12.272 9.42832 11.9819 8.90134 11.9028V11.5774C8.90134 11.3914 8.75049 11.2405 8.56442 11.2405C8.37836 11.2405 8.22751 11.3914 8.22751 11.5774V11.9287C8.17751 11.9397 8.12679 11.9523 8.07491 11.968C7.0528 12.2759 6.79593 13.6586 7.53054 14.2348C7.70704 14.3732 7.92667 14.5 8.22751 14.6339V16.654C7.96723 16.6348 7.787 16.5713 7.49155 16.3781C7.33576 16.2762 7.12696 16.3198 7.02517 16.4755C6.92329 16.6313 6.96695 16.8401 7.12265 16.942ZM8.90134 14.8995C8.92564 14.9083 8.94945 14.9169 8.97447 14.9257C9.84569 15.2337 9.63438 16.3402 8.90134 16.6025V14.8995ZM7.94639 13.7046C7.65349 13.4748 7.76059 12.804 8.22751 12.6277V13.8843C8.12172 13.8269 8.02599 13.767 7.94639 13.7046Z" stroke="black" stroke-width="0.3" mask="url(#path-1-outside-1_2527_13345)"/>
</svg>
