<svg width="20" height="21" viewBox="0 0 20 21" fill="none" xmlns="http://www.w3.org/2000/svg">
<path fill-rule="evenodd" clip-rule="evenodd" d="M18.9929 4.49446C18.9934 4.496 18.9934 4.49805 18.9934 4.49985C18.9978 4.5227 19 4.54555 19 4.56943V19.6155C19 19.8281 18.8357 20.0006 18.6332 20.0006H1.36683C1.16434 20.0006 1 19.8281 1 19.6155V4.56943C1 4.54837 1.00269 4.52835 1.00587 4.50832L1.00621 4.50366C1.00634 4.50108 1.00647 4.49859 1.00709 4.496C1.01296 4.46314 1.02372 4.43233 1.03717 4.40332C1.0406 4.39587 1.04426 4.38894 1.04818 4.38201C1.06261 4.35531 1.07924 4.3304 1.09904 4.30781C1.09987 4.30694 1.10053 4.30589 1.10121 4.30481C1.10193 4.30365 1.10268 4.30245 1.10369 4.30139L4.6402 0.481075C4.70941 0.406363 4.8043 0.364258 4.90335 0.364258H15.0179C15.1152 0.364258 15.2089 0.40508 15.2781 0.477738L18.8934 4.29805C18.8939 4.29848 18.8942 4.29896 18.8946 4.29946C18.8948 4.2999 18.8951 4.30035 18.8953 4.30079L18.8963 4.30242C18.9173 4.32527 18.9349 4.35145 18.9504 4.37918C18.9543 4.38637 18.9579 4.39356 18.9614 4.401C18.9753 4.43027 18.9868 4.46134 18.9929 4.49446ZM14.865 1.1345H10.3669V4.18459H17.752L14.865 1.1345ZM5.05835 1.1345H9.63325V4.18459H2.23496L5.05835 1.1345ZM1.73369 19.2304H18.2664V4.95455H1.73369V19.2304Z" fill="black"/>
<path d="M18.9934 4.49985H18.7934V4.51894L18.797 4.53769L18.9934 4.49985ZM18.9929 4.49446L18.7962 4.53076L18.7985 4.54313L18.8023 4.55511L18.9929 4.49446ZM1.00587 4.50832L1.2034 4.53968L1.20472 4.53132L1.20534 4.52288L1.00587 4.50832ZM1.00621 4.50366L1.20572 4.51822L1.20594 4.51411L1.00621 4.50366ZM1.00709 4.496L1.20197 4.54241L1.20398 4.53116L1.00709 4.496ZM1.03717 4.40332L1.21862 4.48744L1.21888 4.48688L1.03717 4.40332ZM1.04818 4.38201L1.22238 4.48033L1.22413 4.47709L1.04818 4.38201ZM1.09904 4.30781L0.954109 4.16974L0.948661 4.17596L1.09904 4.30781ZM1.10121 4.30481L1.27076 4.41088L1.27076 4.41087L1.10121 4.30481ZM1.10369 4.30139L1.24852 4.43935L1.25046 4.43725L1.10369 4.30139ZM4.6402 0.481075L4.49348 0.34516L4.49344 0.34521L4.6402 0.481075ZM15.2781 0.477738L15.4234 0.340268L15.4229 0.339795L15.2781 0.477738ZM18.8934 4.29805L18.7481 4.43552L18.7545 4.44232L18.7616 4.44849L18.8934 4.29805ZM18.8946 4.29946L19.0626 4.19094L19.0623 4.19048L18.8946 4.29946ZM18.8953 4.30079L18.7188 4.39543L18.7242 4.40429L18.8953 4.30079ZM18.8963 4.30242L18.7252 4.40591L18.7356 4.42309L18.7492 4.43786L18.8963 4.30242ZM18.9504 4.37918L19.126 4.28358L19.1252 4.28204L18.9504 4.37918ZM18.9614 4.401L18.7796 4.48457L18.7808 4.487L18.9614 4.401ZM10.3669 1.1345V0.934499H10.1669V1.1345H10.3669ZM14.865 1.1345L15.0103 0.997015L14.9511 0.934499H14.865V1.1345ZM10.3669 4.18459H10.1669V4.38459H10.3669V4.18459ZM17.752 4.18459V4.38459H18.2167L17.8973 4.0471L17.752 4.18459ZM9.63325 1.1345H9.83325V0.934499H9.63325V1.1345ZM5.05835 1.1345V0.934499H4.97095L4.91158 0.998637L5.05835 1.1345ZM9.63325 4.18459V4.38459H9.83325V4.18459H9.63325ZM2.23496 4.18459L2.08819 4.04873L1.77729 4.38459H2.23496V4.18459ZM18.2664 19.2304V19.4304H18.4664V19.2304H18.2664ZM1.73369 19.2304H1.53369V19.4304H1.73369V19.2304ZM18.2664 4.95455H18.4664V4.75455H18.2664V4.95455ZM1.73369 4.95455V4.75455H1.53369V4.95455H1.73369ZM19.1934 4.49985C19.1934 4.49965 19.1934 4.49757 19.1934 4.4952C19.1933 4.49272 19.1932 4.48874 19.1929 4.48392C19.1924 4.47607 19.1908 4.45683 19.1835 4.4338L18.8023 4.55511C18.7987 4.54359 18.7967 4.53375 18.7956 4.52684C18.7945 4.51982 18.794 4.51404 18.7938 4.5102C18.7933 4.50346 18.7934 4.49781 18.7934 4.49985H19.1934ZM19.2 4.56943C19.2 4.5329 19.1966 4.49738 19.1898 4.46202L18.797 4.53769C18.799 4.54802 18.8 4.5582 18.8 4.56943H19.2ZM19.2 19.6155V4.56943H18.8V19.6155H19.2ZM18.6332 20.2006C18.9552 20.2006 19.2 19.9293 19.2 19.6155H18.8C18.8 19.7269 18.7161 19.8006 18.6332 19.8006V20.2006ZM1.36683 20.2006H18.6332V19.8006H1.36683V20.2006ZM0.8 19.6155C0.8 19.9293 1.04483 20.2006 1.36683 20.2006V19.8006C1.28385 19.8006 1.2 19.7269 1.2 19.6155H0.8ZM0.8 4.56943V19.6155H1.2V4.56943H0.8ZM0.808343 4.47696C0.804809 4.49922 0.8 4.53199 0.8 4.56943H1.2C1.2 4.56475 1.20057 4.55747 1.2034 4.53968L0.808343 4.47696ZM0.80674 4.48911L0.8064 4.49377L1.20534 4.52288L1.20568 4.51822L0.80674 4.48911ZM0.812533 4.44967C0.807055 4.47267 0.806495 4.49298 0.806482 4.49321L1.20594 4.51411C1.20604 4.51203 1.2059 4.51548 1.20548 4.51969C1.20499 4.52464 1.20396 4.53262 1.20165 4.54233L0.812533 4.44967ZM0.855724 4.31919C0.836711 4.3602 0.819722 4.40756 0.810208 4.46084L1.20398 4.53116C1.2062 4.51871 1.21073 4.50445 1.21862 4.48744L0.855724 4.31919ZM0.874007 4.2837C0.868335 4.29375 0.861886 4.30579 0.855464 4.31976L1.21888 4.48688C1.21931 4.48595 1.22019 4.48413 1.22235 4.48032L0.874007 4.2837ZM0.948661 4.17596C0.917336 4.21169 0.892481 4.24944 0.872224 4.28692L1.22413 4.47709C1.23273 4.46117 1.24114 4.44912 1.24943 4.43966L0.948661 4.17596ZM0.931652 4.19874C0.930833 4.20004 0.933088 4.19636 0.936008 4.19216C0.939249 4.18751 0.945323 4.17921 0.954233 4.16986L1.24386 4.44576C1.25359 4.43553 1.26041 4.42628 1.26436 4.42061C1.26638 4.4177 1.26797 4.41526 1.26897 4.41371C1.2699 4.41226 1.2707 4.41097 1.27076 4.41088L0.931652 4.19874ZM0.958877 4.16344C0.949536 4.17325 0.942815 4.1822 0.938555 4.18828C0.936418 4.19133 0.934727 4.19391 0.933623 4.19563C0.932599 4.19722 0.93172 4.19863 0.931649 4.19874L1.27076 4.41087C1.27154 4.40963 1.26921 4.41345 1.26613 4.41784C1.26268 4.42277 1.25684 4.43059 1.24851 4.43933L0.958877 4.16344ZM4.49344 0.34521L0.956924 4.16552L1.25046 4.43725L4.78697 0.61694L4.49344 0.34521ZM4.90335 0.164258C4.74689 0.164258 4.59936 0.230867 4.49348 0.34516L4.78693 0.61699C4.81947 0.58186 4.86172 0.564258 4.90335 0.564258V0.164258ZM15.0179 0.164258H4.90335V0.564258H15.0179V0.164258ZM15.4229 0.339795C15.3172 0.228849 15.1718 0.164258 15.0179 0.164258V0.564258C15.0587 0.564258 15.1006 0.581311 15.1333 0.61568L15.4229 0.339795ZM19.0386 4.16058L15.4234 0.340269L15.1328 0.615207L18.7481 4.43552L19.0386 4.16058ZM19.0623 4.19048C19.0553 4.17969 19.0434 4.16359 19.0252 4.14761L18.7616 4.44849C18.7443 4.43336 18.7332 4.41823 18.7269 4.40845L19.0623 4.19048ZM19.0716 4.20628C19.0716 4.20623 19.0713 4.20566 19.0709 4.205C19.0705 4.2043 19.0699 4.20323 19.0692 4.20196C19.0678 4.19943 19.0655 4.19554 19.0626 4.19095L18.7266 4.40798C18.7239 4.40382 18.7219 4.40037 18.7207 4.3983C18.7197 4.39642 18.7188 4.39483 18.7191 4.39531L19.0716 4.20628ZM19.0674 4.19892L19.0665 4.1973L18.7242 4.40429L18.7252 4.40591L19.0674 4.19892ZM19.1252 4.28204C19.1046 4.24492 19.0782 4.20466 19.0435 4.16697L18.7492 4.43786C18.7565 4.44587 18.7653 4.45798 18.7755 4.47633L19.1252 4.28204ZM19.1431 4.31745C19.1374 4.30509 19.1316 4.29382 19.126 4.28359L18.7747 4.47478C18.7769 4.47892 18.7785 4.48203 18.7797 4.48456L19.1431 4.31745ZM19.1896 4.45816C19.1794 4.40311 19.161 4.35504 19.1419 4.31501L18.7808 4.487C18.7896 4.50551 18.7942 4.51957 18.7962 4.53076L19.1896 4.45816ZM10.3669 1.3345H14.865V0.934499H10.3669V1.3345ZM10.5669 4.18459V1.1345H10.1669V4.18459H10.5669ZM17.752 3.98459H10.3669V4.38459H17.752V3.98459ZM14.7198 1.27198L17.6068 4.32207L17.8973 4.0471L15.0103 0.997015L14.7198 1.27198ZM9.63325 0.934499H5.05835V1.3345H9.63325V0.934499ZM9.83325 4.18459V1.1345H9.43325V4.18459H9.83325ZM2.23496 4.38459H9.63325V3.98459H2.23496V4.38459ZM4.91158 0.998637L2.08819 4.04873L2.38173 4.32045L5.20512 1.27036L4.91158 0.998637ZM18.2664 19.0304H1.73369V19.4304H18.2664V19.0304ZM18.0664 4.95455V19.2304H18.4664V4.95455H18.0664ZM1.73369 5.15455H18.2664V4.75455H1.73369V5.15455ZM1.93369 19.2304V4.95455H1.53369V19.2304H1.93369Z" fill="black"/>
<path d="M10.241 8.74093C10.1744 8.66807 10.0871 8.63176 9.99977 8.63176C9.91246 8.63176 9.82537 8.66807 9.75874 8.74093L7.09994 11.6481C6.96669 11.7938 6.96669 12.0298 7.09994 12.1755C7.23318 12.3212 7.44897 12.3212 7.58222 12.1755L9.65892 9.90493V15.4932C9.65892 15.6991 9.81173 15.8662 10 15.8662C10.1883 15.8662 10.3411 15.6991 10.3411 15.4932V9.90493L12.4178 12.1755C12.551 12.3212 12.7668 12.3212 12.9001 12.1755C13.0333 12.0298 13.0333 11.7938 12.9001 11.6481L10.241 8.74093Z" fill="black" stroke="black" stroke-width="0.4"/>
</svg>
