<svg id="Capa_1" enable-background="new 0 0 512.098 512.098" height="512" viewBox="0 0 512.098 512.098" width="512" xmlns="http://www.w3.org/2000/svg"><g><g id="Page-1_34_"><g id="_x30_35---Reward-Points"><path id="Shape_214_" d="m353.33 428.373c-60.227 45.219-143.662 43.012-201.414-5.328s-74.613-130.084-40.702-197.331c1.485-2.734 1.365-6.059-.314-8.679-1.679-2.619-4.65-4.118-7.754-3.91s-5.849 2.089-7.164 4.908c-12.657 24.989-19.213 52.62-19.132 80.631 0 67.876 38.349 129.926 99.059 160.281s133.36 23.804 187.661-16.921c2.439-1.829 3.717-4.821 3.352-7.847-.365-3.027-2.316-5.629-5.12-6.827-2.803-1.195-6.033-.806-8.472 1.023z"/><path id="Shape_213_" d="m256.05 119.467c-38.791-.109-76.552 12.478-107.52 35.84-3.77 2.828-4.534 8.176-1.707 11.947s8.176 4.534 11.947 1.707c60.312-45.165 143.788-42.841 201.494 5.61s74.44 130.265 40.392 197.483c-1.397 2.72-1.232 5.979.433 8.544 1.664 2.565 4.574 4.043 7.627 3.875s5.783-1.956 7.156-4.688c12.811-25.116 19.454-52.923 19.379-81.118-.109-98.925-80.276-179.092-179.201-179.2z"/><path id="Shape_212_" d="m361.761 239.787-52.13-7.876c-2.972-.516-5.494-2.472-6.733-5.222l-23.501-49.493c-4.133-9.189-13.272-15.099-23.347-15.099-10.076 0-19.214 5.91-23.347 15.099l-23.501 49.493c-1.239 2.75-3.761 4.707-6.733 5.222l-52.13 7.876c-9.781 1.545-17.851 8.482-20.847 17.92-3.348 9.825-.868 20.698 6.409 28.1l37.376 37.897c2.331 2.412 3.368 5.793 2.79 9.097l-8.875 53.76c-1.816 10.31 2.453 20.747 10.974 26.829 7.887 5.654 18.322 6.272 26.82 1.587l47.104-25.745c2.461-1.374 5.458-1.374 7.919 0l47.104 25.745c8.497 4.691 18.936 4.073 26.82-1.587 8.521-6.082 12.79-16.519 10.974-26.829l-8.875-53.76c-.578-3.297.449-6.671 2.765-9.088l37.402-37.897c7.277-7.406 9.756-18.281 6.409-28.109-2.996-9.438-11.066-16.375-20.847-17.92zm2.287 34.005-37.393 37.897c-6.164 6.313-8.939 15.193-7.467 23.893l8.875 53.76c.724 3.867-.831 7.808-4.002 10.138-2.562 1.888-5.994 2.096-8.764.529l-47.104-25.745c-7.563-4.154-16.723-4.154-24.286 0l-47.104 25.745c-2.769 1.571-6.204 1.364-8.764-.529-3.171-2.33-4.727-6.27-4.002-10.138l8.875-53.76c1.459-8.682-1.311-17.539-7.458-23.842l-37.402-37.914c-2.745-2.845-3.659-6.991-2.364-10.726.983-3.333 3.777-5.816 7.202-6.4l52.13-7.876c8.598-1.344 15.959-6.888 19.627-14.78l23.501-49.493c1.326-3.214 4.459-5.311 7.936-5.311s6.61 2.097 7.936 5.311l23.501 49.493c3.667 7.892 11.029 13.435 19.627 14.78l52.13 7.876c3.425.584 6.219 3.067 7.202 6.4 1.266 3.743.327 7.88-2.432 10.709z"/><path id="Shape_211_" d="m264.584 59.733v-51.2c0-4.713-3.821-8.533-8.533-8.533-4.713 0-8.533 3.821-8.533 8.533v51.2c0 4.713 3.821 8.533 8.533 8.533 4.712.001 8.533-3.82 8.533-8.533z"/><path id="Shape_210_" d="m324.317 68.267v-59.734c0-4.713-3.82-8.533-8.533-8.533s-8.533 3.821-8.533 8.533v59.733c0 4.713 3.82 8.533 8.533 8.533s8.533-3.819 8.533-8.532z"/><path id="Shape_209_" d="m366.984 93.867c0 4.713 3.82 8.533 8.533 8.533s8.533-3.821 8.533-8.533v-34.134c0-4.713-3.82-8.533-8.533-8.533s-8.533 3.821-8.533 8.533z"/><path id="Shape_208_" d="m375.517 34.133c4.713 0 8.533-3.821 8.533-8.533v-17.067c0-4.713-3.82-8.533-8.533-8.533s-8.533 3.821-8.533 8.533v17.067c0 4.713 3.82 8.533 8.533 8.533z"/><path id="Shape_207_" d="m443.784 51.2c0-4.713-3.82-8.533-8.533-8.533s-8.533 3.821-8.533 8.533v119.612c-40.238-53.799-103.486-85.476-170.668-85.476s-130.43 31.677-170.667 85.476v-119.612c0-4.713-3.821-8.533-8.533-8.533s-8.533 3.821-8.533 8.533v146.227c-42.249 78.275-31.496 174.55 26.98 241.576s152.403 90.736 235.685 59.493 138.439-110.88 138.402-199.829c.04-35.353-8.761-70.155-25.6-101.239zm-187.734 443.733c-108.395 0-196.267-87.872-196.267-196.267s87.872-196.266 196.267-196.266 196.267 87.872 196.267 196.267c-.122 108.344-87.922 196.144-196.267 196.266z"/><path id="Shape_206_" d="m204.85 68.267v-59.734c0-4.713-3.821-8.533-8.533-8.533-4.713 0-8.533 3.821-8.533 8.533v59.733c0 4.713 3.821 8.533 8.533 8.533 4.713.001 8.533-3.819 8.533-8.532z"/><path id="Shape_205_" d="m128.05 93.867c0 4.713 3.821 8.533 8.533 8.533 4.713 0 8.533-3.821 8.533-8.533v-34.134c0-4.713-3.821-8.533-8.533-8.533-4.713 0-8.533 3.821-8.533 8.533z"/><path id="Shape_204_" d="m136.584 34.133c4.713 0 8.533-3.821 8.533-8.533v-17.067c0-4.713-3.821-8.533-8.533-8.533-4.713 0-8.533 3.821-8.533 8.533v17.067c-.001 4.713 3.82 8.533 8.533 8.533z"/></g></g></g></svg>