<svg width="22" height="22" viewBox="0 0 22 22" fill="none" xmlns="http://www.w3.org/2000/svg">
<mask id="path-1-outside-1_2522_12691" maskUnits="userSpaceOnUse" x="0" y="0" width="22" height="22" fill="black">
<rect fill="white" width="22" height="22"/>
<path fill-rule="evenodd" clip-rule="evenodd" d="M20.0909 11.0839V8.27292C20.0909 7.31975 19.3516 6.54458 18.4174 6.46941L15.8069 1.90983C15.565 1.48813 15.1744 1.18673 14.707 1.06157C14.2417 0.937271 13.7553 1.00255 13.3389 1.24489L4.38991 6.45475H2.81819C1.81545 6.45475 1 7.27015 1 8.27292V19.1818C1 20.1846 1.81541 21 2.81819 21H18.2727C19.2755 21 20.0909 20.1846 20.0909 19.1818V16.3709C20.6189 16.1826 21 15.6828 21 15.091V12.3638C21 11.772 20.6189 11.2721 20.0909 11.0839ZM17.3609 6.45475H13.3991L16.3705 4.72484L17.3609 6.45475ZM11.5923 6.45476L15.9188 3.93595L15.4701 3.15225L9.79774 6.45476H11.5923ZM13.7965 2.03055C14.002 1.91025 14.2421 1.87829 14.4716 1.93957C14.7038 2.0017 14.8973 2.15174 15.0176 2.36169L15.0186 2.36335L7.99117 6.45475H6.19667L13.7965 2.03055ZM18.2729 20.0909C18.774 20.0909 19.182 19.683 19.182 19.1818V16.4546H16.4547C14.9508 16.4546 13.7274 15.2313 13.7274 13.7274C13.7274 12.2235 14.9508 11.0002 16.4547 11.0002H19.182V8.27293C19.182 7.7718 18.774 7.36386 18.2729 7.36386H2.81836C2.31723 7.36386 1.90929 7.7718 1.90929 8.27293V19.1818C1.90929 19.683 2.31723 20.0909 2.81836 20.0909H18.2729ZM20.0909 15.091C20.0909 15.3418 19.8872 15.5455 19.6364 15.5455H16.4545C15.4518 15.5455 14.6363 14.7301 14.6363 13.7274C14.6363 12.7246 15.4517 11.9092 16.4545 11.9092H19.6364C19.8871 11.9092 20.0909 12.1129 20.0909 12.3638V15.091ZM15.5 13.5C15.5 12.9487 15.9487 12.5 16.5 12.5C17.0513 12.5 17.5 12.9487 17.5 13.5C17.5 14.0513 17.0513 14.5 16.5 14.5C15.9487 14.5 15.5 14.0513 15.5 13.5Z"/>
</mask>
<path fill-rule="evenodd" clip-rule="evenodd" d="M20.0909 11.0839V8.27292C20.0909 7.31975 19.3516 6.54458 18.4174 6.46941L15.8069 1.90983C15.565 1.48813 15.1744 1.18673 14.707 1.06157C14.2417 0.937271 13.7553 1.00255 13.3389 1.24489L4.38991 6.45475H2.81819C1.81545 6.45475 1 7.27015 1 8.27292V19.1818C1 20.1846 1.81541 21 2.81819 21H18.2727C19.2755 21 20.0909 20.1846 20.0909 19.1818V16.3709C20.6189 16.1826 21 15.6828 21 15.091V12.3638C21 11.772 20.6189 11.2721 20.0909 11.0839ZM17.3609 6.45475H13.3991L16.3705 4.72484L17.3609 6.45475ZM11.5923 6.45476L15.9188 3.93595L15.4701 3.15225L9.79774 6.45476H11.5923ZM13.7965 2.03055C14.002 1.91025 14.2421 1.87829 14.4716 1.93957C14.7038 2.0017 14.8973 2.15174 15.0176 2.36169L15.0186 2.36335L7.99117 6.45475H6.19667L13.7965 2.03055ZM18.2729 20.0909C18.774 20.0909 19.182 19.683 19.182 19.1818V16.4546H16.4547C14.9508 16.4546 13.7274 15.2313 13.7274 13.7274C13.7274 12.2235 14.9508 11.0002 16.4547 11.0002H19.182V8.27293C19.182 7.7718 18.774 7.36386 18.2729 7.36386H2.81836C2.31723 7.36386 1.90929 7.7718 1.90929 8.27293V19.1818C1.90929 19.683 2.31723 20.0909 2.81836 20.0909H18.2729ZM20.0909 15.091C20.0909 15.3418 19.8872 15.5455 19.6364 15.5455H16.4545C15.4518 15.5455 14.6363 14.7301 14.6363 13.7274C14.6363 12.7246 15.4517 11.9092 16.4545 11.9092H19.6364C19.8871 11.9092 20.0909 12.1129 20.0909 12.3638V15.091ZM15.5 13.5C15.5 12.9487 15.9487 12.5 16.5 12.5C17.0513 12.5 17.5 12.9487 17.5 13.5C17.5 14.0513 17.0513 14.5 16.5 14.5C15.9487 14.5 15.5 14.0513 15.5 13.5Z" fill="black"/>
<path d="M20.0909 11.0839H19.9909V11.1544L20.0573 11.1781L20.0909 11.0839ZM18.4174 6.46941L18.3307 6.5191L18.3569 6.56486L18.4094 6.56909L18.4174 6.46941ZM15.8069 1.90983L15.8937 1.86014L15.8937 1.86007L15.8069 1.90983ZM14.707 1.06157L14.7328 0.964976L14.7328 0.964962L14.707 1.06157ZM13.3389 1.24489L13.2886 1.15847L13.2886 1.15847L13.3389 1.24489ZM4.38991 6.45475V6.55475H4.4169L4.44022 6.54117L4.38991 6.45475ZM20.0909 16.3709L20.0573 16.2767L19.9909 16.3004V16.3709H20.0909ZM13.3991 6.45475L13.3488 6.36833L13.0286 6.55475H13.3991V6.45475ZM17.3609 6.45475V6.55475H17.5334L17.4477 6.40507L17.3609 6.45475ZM16.3705 4.72484L16.4573 4.67515L16.4072 4.58774L16.3202 4.63842L16.3705 4.72484ZM15.9188 3.93595L15.9692 4.02237L16.055 3.97242L16.0056 3.88626L15.9188 3.93595ZM11.5923 6.45476V6.55476H11.6193L11.6426 6.54118L11.5923 6.45476ZM15.4701 3.15225L15.5569 3.10256L15.5069 3.01515L15.4198 3.06583L15.4701 3.15225ZM9.79774 6.45476L9.74743 6.36834L9.42723 6.55476H9.79774V6.45476ZM14.4716 1.93957L14.4975 1.84297L14.4974 1.84295L14.4716 1.93957ZM13.7965 2.03055L13.8468 2.11697L13.847 2.11685L13.7965 2.03055ZM15.0176 2.36169L15.1047 2.31256L15.1044 2.31198L15.0176 2.36169ZM15.0186 2.36335L15.0689 2.44977L15.1541 2.40014L15.1057 2.31422L15.0186 2.36335ZM7.99117 6.45475V6.55475H8.01816L8.04148 6.54117L7.99117 6.45475ZM6.19667 6.45475L6.14636 6.36833L5.82613 6.55475H6.19667V6.45475ZM19.182 16.4546H19.282V16.3546H19.182V16.4546ZM19.182 11.0002V11.1002H19.282V11.0002H19.182ZM17.5 13.5L17.4 13.5V13.5H17.5ZM19.9909 8.27292V11.0839H20.1909V8.27292H19.9909ZM18.4094 6.56909C19.2929 6.64018 19.9909 7.37312 19.9909 8.27292H20.1909C20.1909 7.26638 19.4103 6.44898 18.4255 6.36973L18.4094 6.56909ZM15.7202 1.95951L18.3307 6.5191L18.5042 6.41973L15.8937 1.86014L15.7202 1.95951ZM14.6811 1.15817C15.1226 1.27639 15.4914 1.56083 15.7202 1.95959L15.8937 1.86007C15.6386 1.41542 15.2261 1.09706 14.7328 0.964976L14.6811 1.15817ZM13.3892 1.33132C13.7826 1.10235 14.2417 1.04076 14.6811 1.15818L14.7328 0.964962C14.2418 0.833779 13.7279 0.902756 13.2886 1.15847L13.3892 1.33132ZM4.44022 6.54117L13.3892 1.33132L13.2886 1.15847L4.3396 6.36833L4.44022 6.54117ZM2.81819 6.55475H4.38991V6.35475H2.81819V6.55475ZM1.1 8.27292C1.1 7.32538 1.87068 6.55475 2.81819 6.55475V6.35475C1.76023 6.35475 0.9 7.21492 0.9 8.27292H1.1ZM1.1 19.1818V8.27292H0.9V19.1818H1.1ZM2.81819 20.9C1.87064 20.9 1.1 20.1293 1.1 19.1818H0.9C0.9 20.2398 1.76018 21.1 2.81819 21.1V20.9ZM18.2727 20.9H2.81819V21.1H18.2727V20.9ZM19.9909 19.1818C19.9909 20.1294 19.2202 20.9 18.2727 20.9V21.1C19.3307 21.1 20.1909 20.2398 20.1909 19.1818H19.9909ZM19.9909 16.3709V19.1818H20.1909V16.3709H19.9909ZM20.9 15.091C20.9 15.6384 20.5475 16.1019 20.0573 16.2767L20.1245 16.4651C20.6902 16.2633 21.1 15.7272 21.1 15.091H20.9ZM20.9 12.3638V15.091H21.1V12.3638H20.9ZM20.0573 11.1781C20.5475 11.3529 20.9 11.8164 20.9 12.3638H21.1C21.1 11.7275 20.6902 11.1914 20.1245 10.9897L20.0573 11.1781ZM13.3991 6.55475H17.3609V6.35475H13.3991V6.55475ZM16.3202 4.63842L13.3488 6.36833L13.4494 6.54118L16.4208 4.81126L16.3202 4.63842ZM17.4477 6.40507L16.4573 4.67515L16.2837 4.77453L17.2741 6.50444L17.4477 6.40507ZM15.8685 3.84953L11.542 6.36833L11.6426 6.54118L15.9692 4.02237L15.8685 3.84953ZM15.3833 3.20194L15.8321 3.98564L16.0056 3.88626L15.5569 3.10256L15.3833 3.20194ZM9.84806 6.54118L15.5204 3.23867L15.4198 3.06583L9.74743 6.36834L9.84806 6.54118ZM11.5923 6.35476H9.79774V6.55476H11.5923V6.35476ZM14.4974 1.84295C14.2422 1.77482 13.9746 1.8104 13.7459 1.94424L13.847 2.11685C14.0294 2.0101 14.242 1.98176 14.4458 2.03618L14.4974 1.84295ZM15.1044 2.31198C14.971 2.07921 14.7557 1.91208 14.4975 1.84297L14.4458 2.03617C14.6518 2.09132 14.8236 2.22426 14.9309 2.41141L15.1044 2.31198ZM15.1057 2.31422L15.1047 2.31256L14.9305 2.41082L14.9315 2.41248L15.1057 2.31422ZM8.04148 6.54117L15.0689 2.44977L14.9683 2.27693L7.94085 6.36833L8.04148 6.54117ZM6.19667 6.55475H7.99117V6.35475H6.19667V6.55475ZM13.7461 1.94412L6.14636 6.36833L6.24698 6.54117L13.8468 2.11697L13.7461 1.94412ZM19.082 19.1818C19.082 19.6277 18.7188 19.9909 18.2729 19.9909V20.1909C18.8293 20.1909 19.282 19.7382 19.282 19.1818H19.082ZM19.082 16.4546V19.1818H19.282V16.4546H19.082ZM16.4547 16.5546H19.182V16.3546H16.4547V16.5546ZM13.6274 13.7274C13.6274 15.2865 14.8956 16.5546 16.4547 16.5546V16.3546C15.006 16.3546 13.8274 15.176 13.8274 13.7274H13.6274ZM16.4547 10.9002C14.8956 10.9002 13.6274 12.1683 13.6274 13.7274H13.8274C13.8274 12.2787 15.006 11.1002 16.4547 11.1002V10.9002ZM19.182 10.9002H16.4547V11.1002H19.182V10.9002ZM19.082 8.27293V11.0002H19.282V8.27293H19.082ZM18.2729 7.46386C18.7188 7.46386 19.082 7.82703 19.082 8.27293H19.282C19.282 7.71657 18.8293 7.26386 18.2729 7.26386V7.46386ZM2.81836 7.46386H18.2729V7.26386H2.81836V7.46386ZM2.00929 8.27293C2.00929 7.82703 2.37246 7.46386 2.81836 7.46386V7.26386C2.262 7.26386 1.80929 7.71657 1.80929 8.27293H2.00929ZM2.00929 19.1818V8.27293H1.80929V19.1818H2.00929ZM2.81836 19.9909C2.37246 19.9909 2.00929 19.6277 2.00929 19.1818H1.80929C1.80929 19.7382 2.262 20.1909 2.81836 20.1909V19.9909ZM18.2729 19.9909H2.81836V20.1909H18.2729V19.9909ZM19.6364 15.6455C19.9424 15.6455 20.1909 15.397 20.1909 15.091H19.9909C19.9909 15.2865 19.832 15.4455 19.6364 15.4455V15.6455ZM16.4545 15.6455H19.6364V15.4455H16.4545V15.6455ZM14.5363 13.7274C14.5363 14.7854 15.3966 15.6455 16.4545 15.6455V15.4455C15.507 15.4455 14.7363 14.6749 14.7363 13.7274H14.5363ZM16.4545 11.8092C15.3965 11.8092 14.5363 12.6694 14.5363 13.7274H14.7363C14.7363 12.7799 15.507 12.0092 16.4545 12.0092V11.8092ZM19.6364 11.8092H16.4545V12.0092H19.6364V11.8092ZM20.1909 12.3638C20.1909 12.0577 19.9424 11.8092 19.6364 11.8092V12.0092C19.8319 12.0092 19.9909 12.1682 19.9909 12.3638H20.1909ZM20.1909 15.091V12.3638H19.9909V15.091H20.1909ZM16.5 12.4C15.8935 12.4 15.4 12.8935 15.4 13.5H15.6C15.6 13.004 16.004 12.6 16.5 12.6V12.4ZM17.6 13.5C17.6001 12.8935 17.1065 12.4 16.5 12.4V12.6C16.9961 12.6 17.4 13.004 17.4 13.5L17.6 13.5ZM16.5 14.6C17.1065 14.6 17.6 14.1065 17.6 13.5H17.4C17.4 13.996 16.996 14.4 16.5 14.4V14.6ZM15.4 13.5C15.4 14.1065 15.8935 14.6 16.5 14.6V14.4C16.004 14.4 15.6 13.996 15.6 13.5H15.4Z" fill="black" mask="url(#path-1-outside-1_2522_12691)"/>
</svg>
