<svg fill="#838383" xmlns="http://www.w3.org/2000/svg" viewBox="0 0 87.244 100"><path d="M87.244 75.563V26.69L49.635 48.405l-4.712 2.721.001 48.874zM43.622 0L1.301 24.436l17.005 9.819 42.32-24.436zM66.921 13.453L24.599 37.89l3.191 1.841 15.832 9.142 15.745-9.092 26.575-15.345zM22.939 53.75l-.419-.949-.42.555-.315-.919-.554.486-.266-.921-.573.393-.326-.949-.498.486-.329-1.04-.472.635-.232-1.002-.528.664-.327-.993-.377.6-.203-.814v-13.42L.001 26.69 0 75.563 42.32 100l.001-48.874L23.25 40.114v13.053z"/></svg>